<svg xmlns="http://www.w3.org/2000/svg" viewBox="0 0 180.17019 90.34689">
  <defs>
    <style>
      .cls-1 {
        fill: #551c2e;
      }
    </style>
  </defs>
  <title>legend_purple</title>
  <g id="Layer_2" data-name="Layer 2">
    <g id="Layer_3" data-name="Layer 3">
      <path class="cls-1" d="M1.88219,1.26883c3.5714-3.72254,6.05724,1.93093,11.21595,1.93093,5.15742,0,5.15742-1.23,10.31484-1.23,5.15888,0,5.15888,1.0441,10.31775,1.0441,5.15968,0,5.15968-2.06256,10.31935-2.06256,5.1589,0,5.1589.08506,10.3178.08506s5.159,1.26667,10.318,1.26667c5.15959,0,5.15959.686,10.31918.686,5.1604,0,5.1604-.73885,10.32079-.73885,5.15952,0,5.15952-.26066,10.319-.26066,5.16,0,5.16-.96719,10.3201-.96719,5.15868,0,5.15868,1.23472,10.31735,1.23472s5.15877.38508,10.31753.38508c5.1601,0,5.1601-1.76656,10.3202-1.76656,5.16189,0,5.16189.09137,10.32379.09137,5.16026,0,5.16026.07562,10.32051.07562,5.1638,0,5.1638.25471,10.32761.25471s6.72727-2.86824,10.30539.85492c3.72315,3.87406-1.256,5.35175-1.256,10.72485,0,5.37167,2.45277,5.37167,2.45277,10.74335s-.54448,5.37177-.54448,10.74354c0,5.37316.3741,5.37316.3741,10.74631,0,5.375-1.24461,5.375-1.24461,10.75,0,5.37332.83041,5.37332.83041,10.74664,0,5.377-1.76263,5.377-1.76263,10.754s5.56293,7.51455,1.84039,11.39462c-3.5714,3.72254-5.82641-.25318-10.98511-.25318-5.15742,0-5.15742.855-10.31484.855-5.15888,0-5.15888-1.16047-10.31775-1.16047-5.15968,0-5.15968-.8706-10.31935-.8706-5.1589,0-5.1589,1.44118-10.3178,1.44118s-5.159.49138-10.318.49138c-5.15959,0-5.15959-.32237-10.31918-.32237-5.1604,0-5.1604-1.99271-10.32079-1.99271-5.15952,0-5.15952.652-10.319.652-5.16,0-5.16.69848-10.32009.69848-5.15868,0-5.15868-.30918-10.31735-.30918s-5.15877,1.03613-10.31753,1.03613c-5.1601,0-5.1601-.42921-10.3202-.42921-5.16189,0-5.16189.85742-10.32379.85742-5.16026,0-5.16026-1.23252-10.32051-1.23252-5.1638,0-5.1638-.50044-10.32761-.50044s-6.60541,3.98319-10.18353.26C-.79835,84.1025,3.554,82.74192,3.554,77.36882c0-5.37167-.86731-5.37167-.86731-10.74335s.3372-5.37177.3372-10.74354c0-5.37316-1.078-5.37316-1.078-10.74631,0-5.375.55254-5.375.55254-10.75,0-5.37332.03726-5.37332.03726-10.74664,0-5.377,1.12736-5.43214-.17637-10.6487C.85294,6.9629-1.84035,5.1489,1.88219,1.26883Z"/>
    </g>
  </g>
</svg>
