<svg xmlns="http://www.w3.org/2000/svg" viewBox="0 0 179.97377 90.63851">
  <defs>
    <style>
      .cls-1 {
        fill: #edd834;
      }
    </style>
  </defs>
  <title>legend_yellow</title>
  <g id="Layer_2" data-name="Layer 2">
    <g id="Layer_5" data-name="Layer 5">
      <path class="cls-1" d="M1.62722,1.46174c3.5714-3.72254,6.04258.83943,11.20128.83943,5.15742,0,5.15742-1.21439,10.31484-1.21439,5.15888,0,5.15888.12955,10.31775.12955,5.15968,0,5.15968.39534,10.31935.39534,5.1589,0,5.1589,1.33076,10.3178,1.33076s5.159.779,10.318.779c5.15959,0,5.15959-.13834,10.31918-.13834,5.1604,0,5.1604-1.12091,10.32079-1.12091,5.15952,0,5.15952-1.46452,10.319-1.46452,5.16,0,5.16,2.29163,10.32009,2.29163,5.15868,0,5.15868-1.15406,10.31735-1.15406s5.15877.81411,10.31753.81411c5.1601,0,5.1601-1.54518,10.3202-1.54518,5.16189,0,5.16189-.24409,10.32379-.24409,5.16026,0,5.16026,2.25584,10.32051,2.25584,5.1638,0,5.1638-1.59709,10.32761-1.59709s6.80615-3.28674,10.38428.43641c3.72315,3.87406-1.439,5.42757-1.439,10.80067,0,5.37167,1.3975,5.37167,1.3975,10.74335S176.547,29.171,176.547,34.54281c0,5.37316,2.52052,5.37316,2.52052,10.74631,0,5.375-2.07071,5.375-2.07071,10.75,0,5.37332,1.43825,5.37332,1.43825,10.74664,0,5.377.549,5.377.549,10.754s2.76818,6.95043-.95436,10.8305c-3.5714,3.72254-5.23841-.539-10.39712-.539-5.15742,0-5.15742,1.36546-10.31484,1.36546-5.15888,0-5.15888-2.27973-10.31775-2.27973-5.15968,0-5.15968.57387-10.31935.57387-5.1589,0-5.1589-.53322-10.3178-.53322s-5.159.98019-10.318.98019c-5.15959,0-5.15959,1.7737-10.31918,1.77371-5.1604,0-5.1604-.453-10.32079-.453-5.15952,0-5.15952-.52718-10.319-.52718-5.16,0-5.16-1.07349-10.3201-1.07349-5.15868,0-5.15868-.38472-10.31735-.38472s-5.15877,1.85427-10.31753,1.85427c-5.1601,0-5.1601-.6289-10.3202-.62889-5.16189,0-5.16189.2732-10.32379.2732-5.16026,0-5.16026.41237-10.32051.41237-5.1638,0-5.1638-.11216-10.32761-.11216s-7.43439,3.60321-11.01252-.11994c-3.72315-3.87406.9783-6.03133.9783-11.40443,0-5.37167-.0076-5.37167-.0076-10.74335s-.50932-5.37177-.50932-10.74354c0-5.37316,1.25275-5.37316,1.25275-10.74631,0-5.375-2.31645-5.375-2.31645-10.75,0-5.37332,1.15873-5.37332,1.15873-10.74664,0-5.377,1.94732-5.66588.64655-10.88318C1.52816,6.91426-2.09532,5.34181,1.62722,1.46174Z"/>
    </g>
  </g>
</svg>
