<svg xmlns="http://www.w3.org/2000/svg" viewBox="0 0 179.82674 89.92998">
  <defs>
    <style>
      .cls-1 {
        fill: #007863;
      }
    </style>
  </defs>
  <title>legend_green</title>
  <g id="Layer_2" data-name="Layer 2">
    <g id="Layer_2-2" data-name="Layer 2">
      <path class="cls-1" d="M1.61733,1.42586c3.5714-3.72254,5.81835,1.02037,10.97705,1.02037,5.15742,0,5.15742-.34608,10.31484-.34608,5.15888,0,5.15888.55318,10.31775.55318,5.15968,0,5.15968-.0358,10.31935-.0358,5.1589,0,5.1589-.01346,10.3178-.01346S59.02311.8213,64.18211.8213c5.15959,0,5.15959.35853,10.31918.35853,5.1604,0,5.1604,1.82305,10.32079,1.82305,5.15952,0,5.15952-1.2848,10.319-1.2848,5.16,0,5.16.86676,10.32009.86676,5.15868,0,5.15868-1.268,10.31735-1.268s5.15877,1.49437,10.31753,1.49437c5.1601,0,5.1601-.68227,10.3202-.68227,5.16189,0,5.16189-.00522,10.32379-.00522,5.16026,0,5.16026-.01712,10.32051-.01712,5.1638,0,5.1638.47673,10.32761.47673s7.18566-4.66691,10.76378-.94375c3.72315,3.87406-.29092,5.79229-.29092,11.16539,0,5.37167-1.18024,5.37167-1.18024,10.74335s2.17737,5.37177,2.17737,10.74354c0,5.37316-2.49553,5.37316-2.49553,10.74631,0,5.375,2.14615,5.375,2.14615,10.75,0,5.37332-1.72912,5.37332-1.72912,10.74664,0,5.377,1.86132,5.377,1.86132,10.754s3.06387,7.12968-.65867,11.00975c-3.5714,3.72254-5.42525-.09015-10.584-.09015-5.15742,0-5.15742-.78161-10.31484-.78161-5.15888,0-5.15888,1.29862-10.31775,1.29862-5.15968,0-5.15968-.62716-10.31935-.62716-5.1589,0-5.1589,1.02808-10.3178,1.02808s-5.159-.86035-10.318-.86035c-5.15959,0-5.15959.43324-10.31918.43324-5.1604,0-5.1604-.61544-10.32079-.61544-5.15952,0-5.15952.7589-10.319.7589-5.16,0-5.16-.06592-10.32009-.06592-5.15868,0-5.15868.45384-10.31735.45384s-5.15877-2.39958-10.31753-2.39958c-5.1601,0-5.1601.04852-10.3202.04852-5.16189,0-5.16189-.2472-10.32379-.2472-5.16026,0-5.16026,2.07575-10.32051,2.07575-5.1638,0-5.1638-.37181-10.32761-.37181S6.41386,91.229,2.83573,87.50585c-3.72315-3.87406-1.278-4.8361-1.278-10.2092,0-5.37167.79543-5.37167.79543-10.74335s-.74874-5.37177-.74874-10.74354c0-5.37316.55464-5.37316.55464-10.74631,0-5.375,1.4138-5.375,1.4138-10.75,0-5.37332-2.11017-5.37332-2.11017-10.74664,0-5.377,2.78179-5.69651,1.52705-10.92508C1.57065,6.72813-2.10521,5.30593,1.61733,1.42586Z"/>
    </g>
  </g>
</svg>
