<svg xmlns="http://www.w3.org/2000/svg" viewBox="0 0 1090.12969 806.61337">
  <defs>
    <style>
      .cls-1 {
        fill: #edd834;
      }

      .cls-2 {
        fill: #087a64;
      }

      .cls-3, .cls-4, .cls-5, .cls-7, .cls-9 {
        fill: none;
      }

      .cls-3, .cls-7 {
        stroke: #fffce6;
      }

      .cls-3, .cls-4, .cls-7 {
        stroke-linecap: round;
      }

      .cls-3, .cls-4, .cls-5, .cls-7 {
        stroke-miterlimit: 10;
      }

      .cls-3 {
        stroke-width: 15px;
      }

      .cls-4, .cls-5 {
        stroke: #551c2e;
        stroke-width: 30px;
      }

      .cls-6 {
        fill: #551c2e;
      }

      .cls-7 {
        stroke-width: 5px;
      }

      .cls-8 {
        fill: #fffce6;
      }

      .cls-10, .cls-9 {
        isolation: isolate;
      }

      .cls-11 {
        fill: #4a2230;
      }

      .cls-12 {
        fill: #fafae5;
      }
    </style>
  </defs>
  <title>map</title>
  <g id="Layer_2" data-name="Layer 2">
    <g id="Layer_3" data-name="Layer 3">
      <g id="Layer_2-2" data-name="Layer 2">
        <rect class="cls-1" x="315.05801" y="125.82452" width="284.34772" height="437.44916"/>
        <rect class="cls-1" x="8.82696" y="106.07142" width="306.23105" height="618.461"/>
        <rect class="cls-1" x="311.46162" y="8.97903" width="593.70828" height="113.84549"/>
        <rect class="cls-1" x="599.40573" y="129.49958" width="305.76418" height="351.73018"/>
        <rect class="cls-2" x="898.99276" y="311.17992" width="183.7485" height="318.18702"/>
        <rect class="cls-2" x="320.50698" y="578.17199" width="273.44978" height="141.46212"/>
        <path class="cls-3" d="M104.17932,630.04175c12.622,0,12.622-2.03656,25.244-2.03656,12.62232,0,12.62232.84506,25.24464.84506,12.62383,0,12.62383-.44276,25.24766-.44276,12.624,0,12.624.20215,25.24806.20215,12.62385,0,12.62385.79708,25.2477.79708,12.62447,0,12.62447-.06546,25.24894-.06546,12.62621,0,12.62621-.13715,25.25242-.13715s12.62621.53468,25.25242.53468"/>
        <path class="cls-3" d="M315.35479,571.0168c0,12.792-.0715,12.792-.0715,25.584,0,12.79222-.50713,12.79222-.50713,25.58445,0,12.792.25993,12.792.25993,25.58408,0,12.79267,1.37388,12.79267,1.37388,25.58534,0,12.79443-2.33,12.79443-2.33,25.58886s.91867,12.79443.91867,25.58886"/>
        <path class="cls-3" d="M673.00027,8.979c0,11.6837-.318,11.6837-.318,23.36739,0,11.68353-.05228,11.68353-.05228,23.36705,0,11.6841-.64922,11.6841-.64922,23.36821,0,11.68571,1.52458,11.68571,1.52458,23.37142s-.99017,11.68571-.99017,23.37142"/>
        <path class="cls-4" d="M599.42015,587.07738c0-12.0397.398-12.0397.398-24.0794,0-12.04-1.39347-12.04-1.39348-24.07992,0-12.04047,1.19718-12.04047,1.19718-24.08095,0-12.04169.53871-12.04169.53871-24.08338,0-12.04054-1.69195-12.04054-1.69195-24.08108,0-12.04122-.53514-12.04122-.53514-24.08244,0-12.04077.56224-12.04077.56224-24.08154,0-12.041,2.23176-12.041,2.23176-24.082,0-12.04124-1.85647-12.04124-1.85647-24.08247,0-12.04146.92206-12.04146.92206-24.08293,0-12.03942-1.22327-12.03942-1.22327-24.07885,0-12.04065-.08249-12.04065-.08249-24.08129,0-12.041.17579-12.041.17579-24.08194,0-12.04241.42894-12.04241.42894-24.08482,0-12.0426.54558-12.0426.54558-24.0852,0-12.04243-.67385-12.04243-.67385-24.08485,0-12.043-.20472-12.043-.20472-24.086,0-12.04468.6137-12.04468.6137-24.08936s-.82253-12.04468-.82253-24.08936"/>
        <path class="cls-4" d="M315.058,126.04009c12.06078,0,12.06078-.44276,24.12157-.44276,12.06189,0,12.06189-.978,24.12378-.978,12.06308,0,12.06308,2.15311,24.12617,2.15311,12.062,0,12.062-.85275,24.12392-.85275,12.06171,0,12.06171,1.38212,24.12342,1.38212s12.06182-2.13956,24.12364-2.13956c12.06208,0,12.06208.24308,24.12417.24308,12.0626,0,12.0626.9736,24.1252.9736,12.06381,0,12.06381.63274,24.12763.63274,12.06266,0,12.06266-1.84036,24.12533-1.84036,12.06334,0,12.06334.0932,24.12669.0932,12.06289,0,12.06289.3806,24.12579.3806,12.06312,0,12.06312-.54659,24.12624-.54659,12.06336,0,12.06336-.04239,24.12672-.04239,12.06359,0,12.06359,1.66512,24.12718,1.66512,12.06154,0,12.06154-.109,24.12309-.109,12.06277,0,12.06277-.77328,24.12554-.77328,12.06309,0,12.06309.398,24.12619.398,12.06454,0,12.06454-1.39348,24.12908-1.39348,12.06473,0,12.06473,1.19718,24.12946,1.19718,12.06455,0,12.06455.53871,24.12911.53871,12.06515,0,12.06515-1.69195,24.1303-1.69195,12.06681,0,12.06681-.53514,24.13362-.53514s12.06681.56224,24.13362.56224"/>
        <path class="cls-5" d="M317.852,122.82452c0,12.233-.19785,12.233-.19785,24.466,0,12.23353-.36933,12.23353-.36933,24.46707,0,12.23477.86676,12.23477.86676,24.46953,0,12.2336.1756,12.2336.1756,24.4672,0,12.23429-.05118,12.23429-.05118,24.46858,0,12.23383-2.59825,12.23383-2.59825,24.46767,0,12.23406,1.78954,12.23406,1.78954,24.46813,0,12.23431.26954,12.23431.26954,24.46861,0,12.23454-1.46168,12.23454-1.46168,24.46907,0,12.23246.00421,12.23246.00421,24.46493,0,12.23371-.62715,12.23371-.62716,24.46741,0,12.234,1.01563,12.234,1.01563,24.46807,0,12.2355.1746,12.2355.1746,24.471,0,12.23569.44276,12.23569.44276,24.47139,0,12.23552.978,12.23552.978,24.471,0,12.23612-2.15311,12.23612-2.15311,24.47224,0,12.2378.85275,12.2378.85275,24.47561s-1.38212,12.2378-1.38212,24.47561"/>
        <line class="cls-4" x1="315.05801" y1="563.27368" x2="599.40573" y2="563.27368"/>
        <path class="cls-4" d="M315.058,491.95037c-12.42354,0-12.42354,1.352-24.84707,1.352-12.42378,0-12.42378-.92618-24.84756-.92618-12.424,0-12.424-.47856-24.848-.47856-12.42191,0-12.42191,2.05826-24.84382,2.05826-12.42317,0-12.42317-2.61794-24.84635-2.61794-12.42351,0-12.42351-.18018-24.847-.18018-12.425,0-12.425,1.41966-24.85,1.41966-12.42519,0-12.42519-.17918-24.85038-.17917-12.425,0-12.425.66011-24.85.66012-12.42562,0-12.42562-.9172-24.85125-.9172-12.42733,0-12.42733,1.08759-24.85467,1.08759s-12.42733-.55419-24.85467-.55419"/>
        <path class="cls-4" d="M95.98294,492.54616c0,12.15036.90814,12.15036.90814,24.30072,0,12.1516-.2038,12.1516-.2038,24.30319,0,12.15192-1.778,12.15192-1.778,24.30385,0,12.15338-.08441,12.15338-.08441,24.30675,0,12.15357.83663,12.15357.83663,24.30714,0,12.15339-.844,12.15339-.844,24.30679,0,12.154,2.083,12.154,2.083,24.308,0,12.15566-1.91278,12.15566-1.91278,24.31133s-.03516,12.15566-.03516,24.31133"/>
        <path class="cls-6" d="M906.11891,480.26648c-5.16066-5.08421-8.19342.67309-15.43784.67309-7.24374,0-7.24374.80779-14.48748.80779-7.24359,0-7.24359.42766-14.48718.42766s-7.24366-1.26814-14.48732-1.26814c-7.24382,0-7.24382.48653-14.48763.48653-7.24413,0-7.24413,1.32728-14.48825,1.32728-7.24123,0-7.24123-1.36757-14.48247-1.36756-7.24328,0-7.24328-1.44072-14.48656-1.44072-7.2444,0-7.2444,2.45158-14.4888,2.45158-7.24331,0-7.24331.14594-14.48662.14594s-7.24345-1.22245-14.4869-1.22245c-7.24428,0-7.24428-1.21622-14.48856-1.21622-7.24542,0-7.24542,2.11667-14.49083,2.11667-7.24419,0-7.24419-1.3488-14.48838-1.3488-7.24492,0-7.24492-.24857-14.48985-.24857-7.24512,0-7.24512.85943-14.49024.85943-7.246,0-7.246-1.05664-14.492-1.05664-7.244,0-7.244-.41292-14.488-.41292-7.24652,0-7.24652,2.30912-14.493,2.30912-7.24422,0-7.24422-.97562-14.48845-.97562-7.2492,0-7.2492-.82162-14.4984-.82162s-10.23986-5.27049-15.40729-.18633c-5.08415,5.00222,1.6411,8.05615,1.6411,15.18853,0,7.13171-.79278,7.13171-.79278,14.26343s1.43779,7.13157,1.43779,14.26313-1.0961,7.13163-1.0961,14.26326c0,7.13179-1.07193,7.13179-1.07193,14.26358,0,7.13209.31642,7.13209.31642,14.26418,0,7.12925,1.01828,7.12925,1.01828,14.25849,0,7.13126-.48195,7.13126-.48195,14.26252,0,7.13236-.62047,7.13236-.62047,14.26473,0,7.13129,2.03757,7.13129,2.03757,14.26258s-2.44,7.13143-2.44,14.26285c0,7.13225-.34516,7.13225-.34516,14.26449,0,7.13336.92627,7.13336.92627,14.26672,0,7.13215,1.26429,7.13215,1.26429,14.26431,0,7.13288-.315,7.13288-.315,14.26576,0,7.13307-.06848,7.13307-.06848,14.26614,0,7.13392-1.35273,7.13392-1.35273,14.26785,0,7.132,2.2855,7.132,2.2855,14.26394,0,7.13445-.76138,7.13445-.76138,14.2689,0,7.13219-1.80053,7.13219-1.80053,14.26438,0,7.13709.68328,7.13709.68328,14.27418s-5.05239,9.6847.03182,14.69358c5.16066,5.08421,7.65761-1.58742,14.902-1.58742,7.24374,0,7.24374.77081,14.48748.77081,7.24359,0,7.24359,1.4496,14.48718,1.4496s7.24366-2.27726,14.48732-2.27726c7.24382,0,7.24382,1.21632,14.48763,1.21632,7.24413,0,7.24413-1.21439,14.48825-1.21439,7.24123,0,7.24123.12955,14.48247.12955,7.24328,0,7.24328.39534,14.48656.39534,7.2444,0,7.2444,1.33076,14.4888,1.33076,7.24331,0,7.24331.779,14.48662.779s7.24345-.13834,14.4869-.13834c7.24428,0,7.24428-1.12091,14.48856-1.12091,7.24542,0,7.24542-1.46452,14.49083-1.46452,7.24419,0,7.24419,2.29163,14.48838,2.29163,7.24492,0,7.24492-1.15406,14.48985-1.15406,7.24512,0,7.24512.81411,14.49024.81411,7.246,0,7.246-1.54518,14.492-1.54518,7.244,0,7.244-.24409,14.488-.24409,7.24652,0,7.24652,2.25584,14.493,2.25584,7.24422,0,7.24422-1.59709,14.48845-1.59709,7.2492,0,7.2492.41227,14.4984.41227s10.30047,6.14813,15.4679,1.064c5.08415-5.00222-.98465-8.11776-.98465-15.25013,0-7.13171,1.4181-7.13171,1.4181-14.26343s-2.52052-7.13157-2.52052-14.26313,2.07071-7.13163,2.07071-14.26326c0-7.13179-1.43825-7.13179-1.43825-14.26358,0-7.13209-.549-7.13209-.549-14.26418,0-7.12925.92361-7.12925.92361-14.25849,0-7.13126.573-7.13126.573-14.26252,0-7.13236-1.36546-7.13236-1.36546-14.26473,0-7.13129,2.27973-7.13129,2.27973-14.26258s-.57387-7.13143-.57387-14.26285c0-7.13225.53322-7.13225.53322-14.26449,0-7.13336-.98019-7.13336-.98019-14.26672,0-7.13215-1.7737-7.13215-1.77371-14.26431,0-7.13288.453-7.13288.453-14.26576,0-7.13307.52718-7.13307.52718-14.26614,0-7.13392,1.07349-7.13392,1.07349-14.26785,0-7.132.38472-7.132.38472-14.26394,0-7.13445-1.85427-7.13445-1.85427-14.2689,0-7.13219.6289-7.13219.62889-14.26438,0-7.13709-1.96571-7.45835-.25934-14.38845C906.65633,487.468,911.20312,485.27536,906.11891,480.26648Z"/>
        <path class="cls-3" d="M8.827,724.22932c12.08354,0,12.08354-.02792,24.16707-.02792,12.08465,0,12.08465.351,24.1693.351,12.08584,0,12.08584-.60839,24.17168-.60839,12.08471,0,12.08471,2.07739,24.16943,2.07739,12.08446,0,12.08446-1.77471,24.16893-1.77471s12.08458.72512,24.16915.72512c12.08484,0,12.08484-.6397,24.16968-.6397,12.08535,0,12.08535-.96115,24.17071-.96115,12.08657,0,12.08657,1.45647,24.17315,1.45647,12.08542,0,12.08542.66424,24.17084.66424,12.0861,0,12.0861.37684,24.1722.37684,12.08565,0,12.08565-2.36387,24.1713-2.36387,12.08588,0,12.08588-.21909,24.17176-.21909,12.08612,0,12.08612,2.2844,24.17224,2.2844,12.08635,0,12.08635-2.38841,24.17269-2.38841,12.0843,0,12.0843-.00769,24.1686-.00769,12.08553,0,12.08553-.01547,24.17105-.01547,12.08585,0,12.08585,2.56108,24.1717,2.56108,12.0873,0,12.0873.19648,24.1746.19648,12.08749,0,12.08749-.09128,24.175-.09128,12.08731,0,12.08731-.28016,24.17463-.28016,12.08791,0,12.08791.02811,24.17582.02811,12.08957,0,12.08957-1.36491,24.17915-1.36491s12.08957-.01758,24.17915-.01758"/>
        <path class="cls-3" d="M9.53757,724.53242c0-11.9327-1.77444-11.9327-1.77444-23.86539,0-11.93294.91455-11.93294.91455-23.86589C8.67768,664.86907,7.5,664.86907,7.5,652.937c0-11.93316,1.7369-11.93316,1.7369-23.86632,0-11.93434-1.12531-11.93434-1.12531-23.86868,0-11.93323.69134-11.93323.69134-23.86645,0-11.933.996-11.933.996-23.866s-1.28864-11.93309-1.28864-23.86618c0-11.93335,1.23856-11.93335,1.23856-23.8667,0-11.93386-1.2121-11.93386-1.2121-23.86772,0-11.93506,1.51955-11.93506,1.51955-23.87012,0-11.93392-1.92743-11.93392-1.92743-23.86785,0-11.9346.7253-11.9346.7253-23.86919,0-11.93415.20783-11.93415.20783-23.8683,0-11.93438-.54741-11.93438-.54741-23.86875,0-11.93461-.9834-11.93461-.9834-23.86923,0-11.93484.685-11.93484.685-23.86968,0-11.93282.30763-11.93282.30763-23.86563,0-11.934-.02792-11.934-.02792-23.86806,0-11.93435.351-11.93435.351-23.8687,0-11.93578-.60839-11.93578-.60839-23.87156,0-11.936,2.0774-11.936,2.07739-23.87193,0-11.93579-1.77471-11.93579-1.77471-23.87159,0-11.93638.72512-11.93638.72512-23.87277,0-11.938-.6397-11.938-.6397-23.87605s-.96115-11.938-.96115-23.87605"/>
        <path class="cls-3" d="M304.08164,102.62023c-12.30121,0-12.30121.6191-24.60241.6191-12.30145,0-12.30145,2.10761-24.6029,2.10761-12.30168,0-12.30168-1.095-24.60337-1.095-12.2996,0-12.2996-.30351-24.5992-.30351-12.30085,0-12.30085-.84991-24.6017-.84991-12.30118,0-12.30118-.39332-24.60236-.39332-12.30265,0-12.30265.71816-24.6053.71816-12.30285,0-12.30285-.92425-24.60569-.92425-12.30267,0-12.30267.62715-24.60534.62716-12.30327,0-12.30327,1.42241-24.60655,1.42241-12.305,0-12.305-1.3162-24.60993-1.3162s-12.305,1.98382-24.60993,1.98383"/>
        <path class="cls-3" d="M312.8383,8.979c0,11.86931-2.31928,11.86931-2.31928,23.73861,0,11.86989,2.22855,11.86989,2.22855,23.73978,0,11.87152-.00513,11.87152-.00513,23.743s-2.61968,11.87152-2.61968,23.743"/>
        <path class="cls-3" d="M311.46162,8.24682c11.87265,0,11.87265.79278,23.7453.79278,11.87177,0,11.87177-1.43779,23.74354-1.43779,11.87286,0,11.87286,1.0961,23.74573,1.0961,11.874,0,11.874,1.07193,23.74807,1.07193,11.87293,0,11.87293-.31642,23.74586-.31642,11.87268,0,11.87268-1.01828,23.74536-1.01828s11.87279.48195,23.74559.48195c11.87305,0,11.87305.62047,23.7461.62047,11.87356,0,11.87356-2.03757,23.74712-2.03757C537.049,7.5,537.049,9.94,548.9238,9.94c11.87362,0,11.87362.34516,23.74725.34516,11.87429,0,11.87429-.92627,23.74858-.92627,11.87385,0,11.87385-1.26429,23.7477-1.26429,11.87407,0,11.87407.315,23.74814.315,11.87431,0,11.87431.06848,23.74862.06848,11.87453,0,11.87453,1.35273,23.74907,1.35273,11.87252,0,11.87252-2.2855,23.745-2.2855,11.87373,0,11.87373.76138,23.74746.76138,11.874,0,11.874,1.80053,23.74809,1.80053,11.87547,0,11.87547-.68328,23.75094-.68328,11.87566,0,11.87566.14374,23.75131.14374,11.87548,0,11.87548-1.75677,23.751-1.75677,11.87607,0,11.87607.77081,23.75214.77081,11.8777,0,11.8777,1.4496,23.75541,1.4496s11.8777-2.27726,23.75541-2.27726"/>
        <path class="cls-3" d="M905.17087,8.979c0,11.622,1.0712,11.622,1.0712,23.24395,0,11.62219-1.57173,11.62219-1.57173,23.24439,0,11.621-.85705,11.621-.85705,23.24194,0,11.62279.04074,11.62279.04074,23.24558,0,11.62082.05493,11.62082.05493,23.24164,0,11.622,1.64287,11.622,1.64287,23.244,0,11.62231,1.05573,11.62231,1.05573,23.24463,0,11.6237-.60152,11.6237-.60152,23.24741,0,11.62389.44478,11.62389.44478,23.24777,0,11.62372-.29389,11.62372-.29389,23.24744,0,11.62429-.091,11.62429-.091,23.24858,0,11.62589-1.625,11.62589-1.625,23.25178s-.47362,11.62589-.47362,23.25178"/>
        <path class="cls-3" d="M1076.84782,310.31289c-12.14446,0-12.14446.41841-24.28892.41841-12.14591,0-12.14591-.47792-24.29182-.47792-12.1461,0-12.1461,1.28535-24.29221,1.28535-12.14593,0-12.14593.04605-24.29186.04605-12.14653,0-12.14653-1.15937-24.29306-1.15937-12.1482,0-12.1482.90374-24.2964.90374s-12.1482.91391-24.2964.91391"/>
        <path class="cls-3" d="M1076.84782,630.70274c-12.14446,0-12.14446-1.28984-24.28892-1.28983-12.14591,0-12.14591.02756-24.29182.02756-12.1461,0-12.1461-1.33223-24.29221-1.33222-12.14593,0-12.14593,2.73293-24.29186,2.73293-12.14653,0-12.14653-1.33287-24.29306-1.33287-12.1482,0-12.1482-.02289-24.2964-.02289s-12.1482-1.45326-24.2964-1.45326"/>
        <path class="cls-3" d="M904.61724,795.06412c0-12.09526-.16288-12.09526-.16288-24.19052s-.54256-12.09537-.54256-24.19074c0-12.09564-.22742-12.09564-.22742-24.19127,0-12.09615,2.60256-12.09615,2.60256-24.1923,0-12.09737-.72722-12.09737-.72723-24.19474,0-12.09622-.42976-12.09622-.42976-24.19243,0-12.0969-.79159-12.0969-.79159-24.1938,0-12.09645-.9519-12.09645-.9519-24.1929,0-12.09668,2.88492-12.09668,2.88491-24.19335,0-12.09692-.04321-12.09692-.04321-24.19383,0-12.09714-1.28654-12.09714-1.28654-24.19429,0-12.09509.02545-12.09509.02545-24.19019,0-12.09632-1.3205-12.09632-1.32051-24.19265,0-12.09665,1.97311-12.09665,1.97311-24.1933,0-12.0981-.64492-12.0981-.64492-24.19619,0-12.09829-.56233-12.09829-.56233-24.19657,0-12.09811-.395-12.09811-.395-24.19622,0-12.09871,1.2295-12.09871,1.2295-24.19742,0-12.10037-1.03137-12.10037-1.03137-24.20075s-.406-12.10037-.406-24.20075"/>
        <path class="cls-3" d="M706.0672,796.88417c12.17085,0,12.17085-.16288,24.34169-.16288,12.17117,0,12.17117-.54256,24.34235-.54256,12.17263,0,12.17263-.22742,24.34526-.22742,12.17282,0,12.17282,2.60256,24.34565,2.60256,12.17265,0,12.17265-.72723,24.34529-.72723,12.17325,0,12.17325-.42976,24.34649-.42976,12.17492,0,12.17492-.79159,24.34984-.79159s12.17492-.9519,24.34984-.9519"/>
        <path class="cls-7" d="M645.68948,752.03813c0,15.49648.16288,15.49648.16288,30.993"/>
        <path class="cls-3" d="M588.12081,799.11337c0-12.446-.08249-12.446-.08249-24.89193,0-12.44768.17579-12.44768.17579-24.89535s.42894-12.44768.42894-24.89535"/>
        <path class="cls-3" d="M1080.78027,629.36694c0-12.23677.24308-12.23677.24308-24.47353,0-12.237.9736-12.237.9736-24.474,0-12.23724.63274-12.23724.63274-24.47448,0-12.23747-1.84036-12.23747-1.84036-24.47494,0-12.2354.0932-12.2354.0932-24.47079,0-12.23664.3806-12.23664.3806-24.47328,0-12.237-.54659-12.237-.54659-24.47394,0-12.23843-.04239-12.23843-.04239-24.47687,0-12.23863,1.66512-12.23863,1.66512-24.47725,0-12.23845-.109-12.23845-.109-24.4769,0-12.23905-.77328-12.23905-.77328-24.47811,0-12.24074.398-12.24074.398-24.48147s-1.39347-12.24074-1.39347-24.48147"/>
        <path class="cls-8" d="M661.54153,747.175h0m-16.032-3.89624c-4.49985,0-2.10568,3.81232-3.52267,9.025-1.18045,4.34222-7.37405,3.42767-5.12418,7.32465.90759,1.572,1.75751,2.04077,2.74426,2.04077,1.45944,0,3.2179-1.02606,5.90259-1.02606,2.83273,0,4.92786,1.31189,6.65286,1.31189,1.0152,0,1.90228-.45453,2.73584-1.89832,2.24988-3.897-2.3244-4.30322-4.57428-8.20013s-.31458-8.57776-4.81442-8.57776Z"/>
      </g>
      <g id="Layer_1-2" data-name="Layer 1">
        <path class="cls-9"/>
        <g id="becketzaal" class="cls-10">
          <path class="cls-11" d="M61.33773,181.02273a9.24867,9.24867,0,0,1-4.63818-1.12646,8.18421,8.18421,0,0,1-3.13623-3.1582v3.84277H47.42367V148.33475h7.06738v12.85449a8.42226,8.42226,0,0,1,3.06982-3.11426,9.42446,9.42446,0,0,1,8.5918-.17676,9.82273,9.82273,0,0,1,3.18018,2.584,12.309,12.309,0,0,1,2.07617,3.86523,14.78977,14.78977,0,0,1,.751,4.74854,13.33959,13.33959,0,0,1-.81689,4.70459,11.72242,11.72242,0,0,1-2.2749,3.79883,10.4081,10.4081,0,0,1-3.4458,2.51758A10.21669,10.21669,0,0,1,61.33773,181.02273Zm-1.98779-5.96338a5.3142,5.3142,0,0,0,3.99756-1.72266,5.90679,5.90679,0,0,0,1.14844-1.87744,6.47935,6.47935,0,0,0,.41992-2.36328,7.05961,7.05961,0,0,0-.39746-2.36328,6.5075,6.5075,0,0,0-1.08252-1.96582,5.02312,5.02312,0,0,0-1.65625-1.3252,4.59126,4.59126,0,0,0-2.07617-.48584,4.71253,4.71253,0,0,0-3.06982,1.14844,7.599,7.599,0,0,0-2.14258,2.87158v4.85889a5.52835,5.52835,0,0,0,2.0542,2.36328A5.133,5.133,0,0,0,59.34994,175.05936Z"/>
          <path class="cls-11" d="M86.78109,181.02273a13.71209,13.71209,0,0,1-5.23437-.94971,11.63606,11.63606,0,0,1-3.93115-2.58447,11.05088,11.05088,0,0,1-2.45166-3.77637,12.18068,12.18068,0,0,1-.83936-4.48389,13.37531,13.37531,0,0,1,.83936-4.74854,11.515,11.515,0,0,1,2.42969-3.90918,11.3487,11.3487,0,0,1,3.90918-2.65039,13.55578,13.55578,0,0,1,5.27832-.97168,13.39834,13.39834,0,0,1,5.25684.97168,11.56216,11.56216,0,0,1,3.88721,2.62842,11.15878,11.15878,0,0,1,2.40723,3.8208,12.7824,12.7824,0,0,1,.81738,4.5498q0,.6189-.04443,1.21484a8.72483,8.72483,0,0,1-.13232,1.03809H81.83383a4.76354,4.76354,0,0,0,1.70068,3.55566,5.40833,5.40833,0,0,0,3.46777,1.21484,6.34928,6.34928,0,0,0,2.98145-.751,3.83351,3.83351,0,0,0,1.92139-2.03174l6.00781,1.67871a10.81172,10.81172,0,0,1-4.24072,4.46143A13.15385,13.15385,0,0,1,86.78109,181.02273Zm4.90332-14.22363a5.31515,5.31515,0,0,0-1.59033-3.48975,4.79066,4.79066,0,0,0-3.40137-1.28076,4.724,4.724,0,0,0-3.42334,1.30273,5.40666,5.40666,0,0,0-1.56787,3.46777Z"/>
          <path class="cls-11" d="M101.00424,168.96365a12.651,12.651,0,0,1,.83936-4.57227,11.36348,11.36348,0,0,1,2.42969-3.84277,11.49835,11.49835,0,0,1,3.90918-2.62842,13.55578,13.55578,0,0,1,5.27832-.97168,12.58948,12.58948,0,0,1,6.75879,1.70068,10.91441,10.91441,0,0,1,4.10791,4.43945l-6.89111,2.07617a4.44057,4.44057,0,0,0-4.01953-2.209,4.77105,4.77105,0,0,0-3.68848,1.63477,6.267,6.267,0,0,0-1.48,4.373,7.45311,7.45311,0,0,0,.39795,2.49561,5.70751,5.70751,0,0,0,1.104,1.92139,5.01936,5.01936,0,0,0,1.65674,1.23682,4.70027,4.70027,0,0,0,2.00977.44189,4.75294,4.75294,0,0,0,2.4292-.64062,4.10366,4.10366,0,0,0,1.63477-1.65625l6.89063,2.12012a10.40172,10.40172,0,0,1-4.08594,4.41748,12.80188,12.80188,0,0,1-6.82471,1.72266,13.16889,13.16889,0,0,1-5.23437-.99414,12.00917,12.00917,0,0,1-3.93115-2.65039,11.19416,11.19416,0,0,1-2.45166-3.84277A12.65035,12.65035,0,0,1,101.00424,168.96365Z"/>
          <path class="cls-11" d="M143.14437,180.58084l-6.05176-9.32031-2.47363,2.562v6.7583H127.5516V148.33475H134.619v18.68506l7.81836-9.62939h7.50928l-8.34814,9.98291,9.05518,13.20752Z"/>
          <path class="cls-11" d="M162.57943,181.02273a13.71209,13.71209,0,0,1-5.23437-.94971,11.63606,11.63606,0,0,1-3.93115-2.58447,11.05088,11.05088,0,0,1-2.45166-3.77637,12.18068,12.18068,0,0,1-.83936-4.48389,13.37531,13.37531,0,0,1,.83936-4.74854,11.515,11.515,0,0,1,2.42969-3.90918,11.3487,11.3487,0,0,1,3.90918-2.65039,13.55578,13.55578,0,0,1,5.27832-.97168,13.39834,13.39834,0,0,1,5.25684.97168,11.56216,11.56216,0,0,1,3.88721,2.62842,11.15878,11.15878,0,0,1,2.40723,3.8208,12.7824,12.7824,0,0,1,.81738,4.5498q0,.6189-.04443,1.21484a8.72486,8.72486,0,0,1-.13232,1.03809H157.63217a4.76354,4.76354,0,0,0,1.70068,3.55566,5.40833,5.40833,0,0,0,3.46777,1.21484,6.34928,6.34928,0,0,0,2.98145-.751,3.83351,3.83351,0,0,0,1.92139-2.03174l6.00781,1.67871a10.81172,10.81172,0,0,1-4.24072,4.46143A13.15385,13.15385,0,0,1,162.57943,181.02273Zm4.90332-14.22363a5.31515,5.31515,0,0,0-1.59033-3.48975,4.79066,4.79066,0,0,0-3.40137-1.28076,4.724,4.724,0,0,0-3.42334,1.30273,5.40666,5.40666,0,0,0-1.56787,3.46777Z"/>
          <path class="cls-11" d="M193.01449,179.344a28.19992,28.19992,0,0,1-3.335,1.14844,13.84046,13.84046,0,0,1-3.77686.53027,9.12934,9.12934,0,0,1-2.49561-.33154,5.56327,5.56327,0,0,1-2.0542-1.06006,4.94556,4.94556,0,0,1-1.3916-1.92139,7.30588,7.30588,0,0,1-.50781-2.87109V162.73514H176.494v-5.34473h2.95947v-7.377h7.06738v7.377h4.72656v5.34473h-4.72656V172.409a1.89273,1.89273,0,0,0,2.03223,2.16455,5.41229,5.41229,0,0,0,1.63428-.26514,10.028,10.028,0,0,0,1.45752-.57422Z"/>
          <path class="cls-11" d="M194.38314,176.34012l11.83838-14.04687H195.00179v-4.90283h18.59668v4.24023l-11.75,14.04688h12.05908v4.90332H194.38314Z"/>
          <path class="cls-11" d="M224.15511,181.02273a9.09874,9.09874,0,0,1-3.20264-.55225,7.4952,7.4952,0,0,1-2.54-1.5459,7.41322,7.41322,0,0,1-1.67822-2.34131,6.94381,6.94381,0,0,1-.61865-2.9375,6.74336,6.74336,0,0,1,.729-3.13623,7.19541,7.19541,0,0,1,2.0542-2.42969A10.14187,10.14187,0,0,1,222.035,166.49a13.26505,13.26505,0,0,1,4.01953-.57422,16.193,16.193,0,0,1,2.82715.24268,9.31173,9.31173,0,0,1,2.38525.729v-1.06006q0-4.01953-4.63818-4.02a10.3128,10.3128,0,0,0-3.62207.64063,17.42873,17.42873,0,0,0-3.62207,1.92139l-2.07617-4.417a18.54291,18.54291,0,0,1,4.77051-2.25293,18.00614,18.00614,0,0,1,5.25635-.751q5.25659,0,8.12793,2.47363,2.87109,2.47412,2.87109,7.24414v5.96338a2.459,2.459,0,0,0,.33154,1.48,1.64218,1.64218,0,0,0,1.17041.50781v5.96338a11.80643,11.80643,0,0,1-1.67871.28711q-.75146.06592-1.36914.06641a4.91639,4.91639,0,0,1-3.00391-.77295,3.42,3.42,0,0,1-1.28076-2.18652l-.13281-1.06055a10.59062,10.59062,0,0,1-3.688,3.04785A10.07544,10.07544,0,0,1,224.15511,181.02273Zm2.07617-5.08008a6.41923,6.41923,0,0,0,2.23047-.39746,5.207,5.207,0,0,0,1.78906-1.06006,2.1938,2.1938,0,0,0,1.01611-1.67871v-2.2085a11.46189,11.46189,0,0,0-2.00977-.55225,11.19732,11.19732,0,0,0-2.01025-.19873,5.44953,5.44953,0,0,0-3.20215.8833,2.69405,2.69405,0,0,0-1.25928,2.29688,2.61645,2.61645,0,0,0,.97217,2.09863A3.70965,3.70965,0,0,0,226.23129,175.94266Z"/>
          <path class="cls-11" d="M250.03988,181.02273a9.09874,9.09874,0,0,1-3.20264-.55225,7.4952,7.4952,0,0,1-2.54-1.5459,7.41322,7.41322,0,0,1-1.67822-2.34131,6.94381,6.94381,0,0,1-.61865-2.9375,6.74336,6.74336,0,0,1,.729-3.13623,7.19541,7.19541,0,0,1,2.0542-2.42969,10.14187,10.14187,0,0,1,3.13623-1.58984,13.26505,13.26505,0,0,1,4.01953-.57422,16.193,16.193,0,0,1,2.82715.24268,9.31174,9.31174,0,0,1,2.38525.729v-1.06006q0-4.01953-4.63818-4.02a10.3128,10.3128,0,0,0-3.62207.64063,17.42873,17.42873,0,0,0-3.62207,1.92139l-2.07617-4.417a18.54291,18.54291,0,0,1,4.77051-2.25293,18.00614,18.00614,0,0,1,5.25635-.751q5.25659,0,8.12793,2.47363,2.87109,2.47412,2.87109,7.24414v5.96338a2.459,2.459,0,0,0,.33154,1.48,1.64218,1.64218,0,0,0,1.17041.50781v5.96338a11.80643,11.80643,0,0,1-1.67871.28711q-.75146.06592-1.36914.06641a4.91639,4.91639,0,0,1-3.00391-.77295,3.42,3.42,0,0,1-1.28076-2.18652l-.13281-1.06055a10.59062,10.59062,0,0,1-3.688,3.04785A10.07544,10.07544,0,0,1,250.03988,181.02273Zm2.07617-5.08008a6.41924,6.41924,0,0,0,2.23047-.39746,5.207,5.207,0,0,0,1.78906-1.06006,2.1938,2.1938,0,0,0,1.01611-1.67871v-2.2085a11.4619,11.4619,0,0,0-2.00977-.55225,11.19731,11.19731,0,0,0-2.01025-.19873,5.44953,5.44953,0,0,0-3.20215.8833,2.69405,2.69405,0,0,0-1.25928,2.29688,2.61645,2.61645,0,0,0,.97217,2.09863A3.70965,3.70965,0,0,0,252.11605,175.94266Z"/>
          <path class="cls-11" d="M269.25521,148.33475h7.06738v23.98584q0,2.65063,2.25293,2.65039a5.00054,5.00054,0,0,0,1.17041-.15479,4.28776,4.28776,0,0,0,1.17041-.46387l.92773,5.30078a13.66923,13.66923,0,0,1-3.04785.97168,16.11465,16.11465,0,0,1-3.22461.35352,6.43875,6.43875,0,0,1-4.68213-1.59033,6.118,6.118,0,0,1-1.63428-4.59375Z"/>
        </g>
        <g id="bistro" class="cls-10">
          <path class="cls-11" d="M169.87777,586.99148a9.24849,9.24849,0,0,1-4.63818-1.126,8.18421,8.18421,0,0,1-3.13623-3.1582v3.84277h-6.13965V554.304h7.06738v12.85449a8.42226,8.42226,0,0,1,3.06982-3.11426,9.42843,9.42843,0,0,1,8.5918-.17676,9.82273,9.82273,0,0,1,3.18018,2.584,12.31437,12.31437,0,0,1,2.07617,3.86523,14.79276,14.79276,0,0,1,.751,4.749,13.34077,13.34077,0,0,1-.81689,4.7041,11.73276,11.73276,0,0,1-2.2749,3.79883,10.41491,10.41491,0,0,1-3.4458,2.51758A10.21635,10.21635,0,0,1,169.87777,586.99148ZM167.89,581.02859a5.31421,5.31421,0,0,0,3.99756-1.72266A5.89837,5.89837,0,0,0,173.036,577.428a6.47594,6.47594,0,0,0,.41992-2.3623,7.05961,7.05961,0,0,0-.39746-2.36328,6.50165,6.50165,0,0,0-1.08252-1.96582,5.01076,5.01076,0,0,0-1.65625-1.3252,4.579,4.579,0,0,0-2.07617-.48633,4.71,4.71,0,0,0-3.06982,1.14844,7.60112,7.60112,0,0,0-2.14258,2.87109V577.804a5.53118,5.53118,0,0,0,2.0542,2.36328A5.133,5.133,0,0,0,167.89,581.02859Z"/>
          <path class="cls-11" d="M184.23422,560.70926V554.304h7.06738v6.40527Zm0,25.84082V563.35965h7.06738v23.19043Z"/>
          <path class="cls-11" d="M205.30355,586.99148a18.46619,18.46619,0,0,1-5.83105-.94922,13.29281,13.29281,0,0,1-4.85889-2.76074l2.51807-4.3291a20.95874,20.95874,0,0,0,4.12988,2.25293,10.487,10.487,0,0,0,3.86523.79492,3.88531,3.88531,0,0,0,2.12012-.48633,1.57944,1.57944,0,0,0,.751-1.41309,1.66434,1.66434,0,0,0-.94971-1.47949,14.64249,14.64249,0,0,0-3.335-1.1709q-2.34155-.66211-3.95312-1.28125a11.10751,11.10751,0,0,1-2.62842-1.36914,4.43482,4.43482,0,0,1-1.458-1.72266,5.50922,5.50922,0,0,1-.44141-2.29687,7.219,7.219,0,0,1,2.65039-5.69824,9.22047,9.22047,0,0,1,2.9375-1.58984,11.45946,11.45946,0,0,1,3.68848-.57422,16.38669,16.38669,0,0,1,4.88086.70605,12.2103,12.2103,0,0,1,4.395,2.5625l-2.73877,4.24023a18.69,18.69,0,0,0-3.53369-1.9873,8.06875,8.06875,0,0,0-3.00342-.61914,3.8048,3.8048,0,0,0-1.94385.46387,1.71713,1.71713,0,0,0,.06641,2.9375,14.27554,14.27554,0,0,0,3.20215,1.06055,40.75865,40.75865,0,0,1,4.17432,1.3252,11.20027,11.20027,0,0,1,2.76123,1.47949,5.02554,5.02554,0,0,1,1.5459,1.87793,6.001,6.001,0,0,1,.48584,2.51758,6.62722,6.62722,0,0,1-2.562,5.47754A10.86153,10.86153,0,0,1,205.30355,586.99148Z"/>
          <path class="cls-11" d="M233.22054,585.31277a28.10472,28.10472,0,0,1-3.335,1.14941,13.8769,13.8769,0,0,1-3.77686.5293,9.12942,9.12942,0,0,1-2.49561-.33105,5.55691,5.55691,0,0,1-2.0542-1.06055,4.94017,4.94017,0,0,1-1.3916-1.9209,7.3042,7.3042,0,0,1-.50781-2.87109V568.70438H216.7v-5.34473h2.95947v-7.377h7.06738v7.377h4.72656v5.34473h-4.72656v9.67383a1.89205,1.89205,0,0,0,2.03223,2.16406,5.41126,5.41126,0,0,0,1.63428-.26465,10.084,10.084,0,0,0,1.45752-.57422Z"/>
          <path class="cls-11" d="M250.6683,569.41141a13.53122,13.53122,0,0,0-4.63818.83887,5.6535,5.6535,0,0,0-3.00391,2.38574v13.91406h-7.06738V563.35965H242.452v4.68262a9.84863,9.84863,0,0,1,3.06982-3.667,7.0799,7.0799,0,0,1,3.99756-1.36914h.707a2.34574,2.34574,0,0,1,.44189.04395Z"/>
          <path class="cls-11" d="M263.52279,586.99148a13.56,13.56,0,0,1-5.27881-.97168,11.488,11.488,0,0,1-3.90918-2.62793,11.0985,11.0985,0,0,1-2.40723-3.84277,13.19683,13.19683,0,0,1,0-9.14453,11.0985,11.0985,0,0,1,2.40723-3.84277,11.76718,11.76718,0,0,1,3.90918-2.65039,13.29635,13.29635,0,0,1,5.27881-.99316,13.13413,13.13413,0,0,1,5.25635.99316,11.82645,11.82645,0,0,1,3.88721,2.65039,11.39079,11.39079,0,0,1,2.42969,3.84277,12.66336,12.66336,0,0,1,.83936,4.57227,12.96577,12.96577,0,0,1-.81738,4.57227,11.11292,11.11292,0,0,1-2.40723,3.84277,11.49013,11.49013,0,0,1-3.90967,2.62793A13.5575,13.5575,0,0,1,263.52279,586.99148Zm-5.16846-12.01465a6.41281,6.41281,0,0,0,1.458,4.39551,4.72319,4.72319,0,0,0,3.71045,1.65625,4.67194,4.67194,0,0,0,2.03174-.44141,4.86458,4.86458,0,0,0,1.6123-1.2373,5.94081,5.94081,0,0,0,1.08252-1.92187,7.31963,7.31963,0,0,0,.39746-2.45117,6.41428,6.41428,0,0,0-1.45752-4.39551,4.68068,4.68068,0,0,0-3.6665-1.65625,4.80279,4.80279,0,0,0-3.68848,1.67871,5.922,5.922,0,0,0-1.082,1.92188A7.31148,7.31148,0,0,0,258.35433,574.97684Z"/>
        </g>
        <g id="wc" class="cls-10">
          <path class="cls-11" d="M212.51742,667.90164h6.71387l-9.58545,23.19043h-5.78662l-3.57764-9.541-3.57812,9.541h-5.78662l-9.58545-23.19043h6.66992L194.3182,684.555l2.16455-6.31738-4.1084-10.33594h5.6543l2.25293,6.97949,2.2085-6.97949h5.6543l-4.064,10.33594L206.245,684.555Z"/>
          <path class="cls-11" d="M219.27523,679.47488a12.64912,12.64912,0,0,1,.83936-4.57227,11.36823,11.36823,0,0,1,2.42969-3.84277,11.48328,11.48328,0,0,1,3.90918-2.62793,13.55578,13.55578,0,0,1,5.27832-.97168,12.59376,12.59376,0,0,1,6.75879,1.7002,10.91745,10.91745,0,0,1,4.10791,4.43945l-6.89111,2.07617a4.43961,4.43961,0,0,0-4.01953-2.209,4.77267,4.77267,0,0,0-3.68848,1.63477,6.26616,6.26616,0,0,0-1.48,4.373,7.44612,7.44612,0,0,0,.39795,2.49512,5.71462,5.71462,0,0,0,1.104,1.92188,5.0208,5.0208,0,0,0,1.65674,1.2373,4.867,4.867,0,0,0,4.439-.19922,4.10665,4.10665,0,0,0,1.63477-1.65625l6.89063,2.12012a10.39508,10.39508,0,0,1-4.08594,4.417,12.80188,12.80188,0,0,1-6.82471,1.72266,13.17736,13.17736,0,0,1-5.23437-.99316,12.03185,12.03185,0,0,1-3.93115-2.65039,11.1982,11.1982,0,0,1-2.45166-3.84375A12.64391,12.64391,0,0,1,219.27523,679.47488Z"/>
        </g>
        <g id="binnenhof" class="cls-10">
          <path class="cls-11" d="M366.48666,364.659a9.24867,9.24867,0,0,1-4.63818-1.12646,8.18421,8.18421,0,0,1-3.13623-3.1582v3.84277h-6.13965V331.971H359.64v12.85449a8.42226,8.42226,0,0,1,3.06982-3.11426,9.42446,9.42446,0,0,1,8.5918-.17676,9.82273,9.82273,0,0,1,3.18018,2.584,12.309,12.309,0,0,1,2.07617,3.86523,14.78977,14.78977,0,0,1,.751,4.74854,13.33959,13.33959,0,0,1-.81689,4.70459,11.72243,11.72243,0,0,1-2.2749,3.79883,10.40809,10.40809,0,0,1-3.4458,2.51758A10.21669,10.21669,0,0,1,366.48666,364.659Zm-1.98779-5.96338a5.31421,5.31421,0,0,0,3.99756-1.72266,5.90679,5.90679,0,0,0,1.14844-1.87744,6.47935,6.47935,0,0,0,.41992-2.36328,7.05962,7.05962,0,0,0-.39746-2.36328,6.50751,6.50751,0,0,0-1.08252-1.96582,5.02312,5.02312,0,0,0-1.65625-1.3252,4.59126,4.59126,0,0,0-2.07617-.48584,4.71253,4.71253,0,0,0-3.06982,1.14844,7.599,7.599,0,0,0-2.14258,2.87158V355.471a5.52835,5.52835,0,0,0,2.0542,2.36328A5.133,5.133,0,0,0,364.49886,358.69559Z"/>
          <path class="cls-11" d="M380.8431,338.37625V331.971h7.06738v6.40527Zm0,25.84082V341.02664h7.06738v23.19043Z"/>
          <path class="cls-11" d="M415.12,364.21707h-7.06738V351.18631a5.20136,5.20136,0,0,0-.86182-3.335,2.81019,2.81019,0,0,0-2.27441-1.03809,3.92526,3.92526,0,0,0-1.502.30908,6.21709,6.21709,0,0,0-1.458.86133,6.63484,6.63484,0,0,0-1.25879,1.30322,6.17542,6.17542,0,0,0-.86133,1.63428v13.2959h-7.06738V341.02664h6.36084v3.88721a8.43706,8.43706,0,0,1,3.62207-3.20264,12.2845,12.2845,0,0,1,5.38867-1.12646,7.02031,7.02031,0,0,1,3.62256.81738,5.86668,5.86668,0,0,1,2.12012,2.12012,8.21507,8.21507,0,0,1,.99365,2.84912,19.38974,19.38974,0,0,1,.24316,3.00391Z"/>
          <path class="cls-11" d="M442.15365,364.21707h-7.06738V351.18631a5.20136,5.20136,0,0,0-.86182-3.335,2.81019,2.81019,0,0,0-2.27441-1.03809,3.92526,3.92526,0,0,0-1.502.30908,6.21709,6.21709,0,0,0-1.458.86133,6.63484,6.63484,0,0,0-1.25879,1.30322,6.17542,6.17542,0,0,0-.86133,1.63428v13.2959h-7.06738V341.02664h6.36084v3.88721a8.43706,8.43706,0,0,1,3.62207-3.20264,12.2845,12.2845,0,0,1,5.38867-1.12646,7.02031,7.02031,0,0,1,3.62256.81738,5.86668,5.86668,0,0,1,2.12012,2.12012,8.21507,8.21507,0,0,1,.99365,2.84912,19.38974,19.38974,0,0,1,.24316,3.00391Z"/>
          <path class="cls-11" d="M457.92318,364.659a13.71209,13.71209,0,0,1-5.23437-.94971,11.63606,11.63606,0,0,1-3.93115-2.58447,11.05088,11.05088,0,0,1-2.45166-3.77637,12.18068,12.18068,0,0,1-.83936-4.48389,13.37531,13.37531,0,0,1,.83936-4.74854,11.515,11.515,0,0,1,2.42969-3.90918,11.3487,11.3487,0,0,1,3.90918-2.65039,13.55578,13.55578,0,0,1,5.27832-.97168,13.39834,13.39834,0,0,1,5.25684.97168,11.56216,11.56216,0,0,1,3.88721,2.62842,11.15879,11.15879,0,0,1,2.40723,3.8208,12.7824,12.7824,0,0,1,.81738,4.5498q0,.6189-.04443,1.21484a8.72485,8.72485,0,0,1-.13232,1.03809H452.97592a4.76354,4.76354,0,0,0,1.70068,3.55566,5.40833,5.40833,0,0,0,3.46777,1.21484,6.34928,6.34928,0,0,0,2.98145-.751,3.83351,3.83351,0,0,0,1.92139-2.03174l6.00781,1.67871a10.81172,10.81172,0,0,1-4.24072,4.46143A13.15385,13.15385,0,0,1,457.92318,364.659Zm4.90332-14.22363a5.31515,5.31515,0,0,0-1.59033-3.48975,4.79066,4.79066,0,0,0-3.40137-1.28076,4.724,4.724,0,0,0-3.42334,1.30273,5.40666,5.40666,0,0,0-1.56787,3.46777Z"/>
          <path class="cls-11" d="M495.867,364.21707h-7.06738V351.18631a5.20136,5.20136,0,0,0-.86182-3.335,2.81019,2.81019,0,0,0-2.27441-1.03809,3.92526,3.92526,0,0,0-1.502.30908,6.21709,6.21709,0,0,0-1.458.86133,6.63484,6.63484,0,0,0-1.25879,1.30322,6.17542,6.17542,0,0,0-.86133,1.63428v13.2959H473.516V341.02664h6.36084v3.88721a8.43706,8.43706,0,0,1,3.62207-3.20264,12.2845,12.2845,0,0,1,5.38867-1.12646,7.02031,7.02031,0,0,1,3.62256.81738,5.86668,5.86668,0,0,1,2.12012,2.12012,8.21507,8.21507,0,0,1,.99365,2.84912,19.38974,19.38974,0,0,1,.24316,3.00391Z"/>
          <path class="cls-11" d="M522.90023,364.21707h-7.06738V351.18631a5.12157,5.12157,0,0,0-.88379-3.313,2.992,2.992,0,0,0-2.4292-1.06006,3.69959,3.69959,0,0,0-1.34766.28711,5.42625,5.42625,0,0,0-1.41309.83936,7.53653,7.53653,0,0,0-1.25928,1.30273,5.71231,5.71231,0,0,0-.8833,1.67871v13.2959h-7.06738V331.971h7.06738v12.94287a8.815,8.815,0,0,1,3.37939-3.20264,9.60008,9.60008,0,0,1,4.61572-1.12646,7.60214,7.60214,0,0,1,3.77686.81738,6.02114,6.02114,0,0,1,2.2085,2.07617,7.8467,7.8467,0,0,1,1.03809,2.82666,18.40827,18.40827,0,0,1,.26514,3.07031Z"/>
          <path class="cls-11" d="M538.62631,364.659a13.55728,13.55728,0,0,1-5.2793-.97217,11.488,11.488,0,0,1-3.90918-2.62793,11.0915,11.0915,0,0,1-2.40723-3.84326,13.1941,13.1941,0,0,1,0-9.14355,11.096,11.096,0,0,1,2.40723-3.84326,11.76606,11.76606,0,0,1,3.90918-2.6499,13.28516,13.28516,0,0,1,5.2793-.99414,13.12323,13.12323,0,0,1,5.25586.99414,11.8028,11.8028,0,0,1,3.88672,2.6499,11.35806,11.35806,0,0,1,2.42969,3.84326,12.66775,12.66775,0,0,1,.83984,4.57178,12.99132,12.99132,0,0,1-.81641,4.57178,11.12277,11.12277,0,0,1-2.4082,3.84326,11.48748,11.48748,0,0,1-3.91016,2.62793A13.549,13.549,0,0,1,538.62631,364.659Zm-5.16895-12.01514a6.41065,6.41065,0,0,0,1.458,4.395,4.726,4.726,0,0,0,3.71094,1.65674,4.66389,4.66389,0,0,0,2.03125-.44189,4.86672,4.86672,0,0,0,1.61328-1.23682,5.96843,5.96843,0,0,0,1.082-1.92139,7.35336,7.35336,0,0,0,.39648-2.45166,6.41583,6.41583,0,0,0-1.457-4.395,4.67985,4.67985,0,0,0-3.666-1.65674,4.79851,4.79851,0,0,0-3.689,1.67871,5.9195,5.9195,0,0,0-1.082,1.92139A7.31641,7.31641,0,0,0,533.45736,352.64383Z"/>
          <path class="cls-11" d="M555.67611,364.21707V348.27078h-2.96v-5.34473h2.96v-1.89941a12.65124,12.65124,0,0,1,.57422-3.93164,8.67194,8.67194,0,0,1,1.63379-3.00342,7.10975,7.10975,0,0,1,2.5625-1.89941,8.1101,8.1101,0,0,1,3.3125-.6626,15.53878,15.53878,0,0,1,6.05176,1.36914l-1.28125,5.30078a8.91612,8.91612,0,0,0-1.56738-.50781,7.178,7.178,0,0,0-1.6123-.19873q-2.60742,0-2.60645,3.26855v2.16455h5.38867v5.34473h-5.38867v15.94629Z"/>
        </g>
        <g id="bouffonzaal_" data-name="bouffonzaal " class="cls-10">
          <path class="cls-11" d="M640.24545,266.98709a9.2468,9.2468,0,0,1-4.6377-1.12646,8.18542,8.18542,0,0,1-3.13672-3.1582v3.84277h-6.13965V234.2991h7.06738v12.85449a8.41986,8.41986,0,0,1,3.07031-3.11426,9.42244,9.42244,0,0,1,8.59082-.17676,9.81425,9.81425,0,0,1,3.18066,2.584,12.309,12.309,0,0,1,2.07617,3.86523,14.77636,14.77636,0,0,1,.751,4.74854,13.32879,13.32879,0,0,1-.81738,4.70459,11.71277,11.71277,0,0,1-2.27441,3.79883,10.40121,10.40121,0,0,1-3.44531,2.51758A10.21731,10.21731,0,0,1,640.24545,266.98709Zm-1.9873-5.96338a5.31625,5.31625,0,0,0,3.99707-1.72266,5.90679,5.90679,0,0,0,1.14844-1.87744,6.4896,6.4896,0,0,0,.41992-2.36328,7.05961,7.05961,0,0,0-.39746-2.36328,6.52762,6.52762,0,0,0-1.082-1.96582,5.02671,5.02671,0,0,0-1.65723-1.3252,4.58679,4.58679,0,0,0-2.07617-.48584,4.71318,4.71318,0,0,0-3.06934,1.14844,7.594,7.594,0,0,0-2.14258,2.87158v4.85889a5.53052,5.53052,0,0,0,2.05371,2.36328A5.13492,5.13492,0,0,0,638.25814,261.02371Z"/>
          <path class="cls-11" d="M665.64486,266.98709a13.554,13.554,0,0,1-5.27832-.97217,11.48328,11.48328,0,0,1-3.90918-2.62793,11.09393,11.09393,0,0,1-2.4082-3.84326,13.20891,13.20891,0,0,1,0-9.14355,11.09845,11.09845,0,0,1,2.4082-3.84326,11.76107,11.76107,0,0,1,3.90918-2.6499,13.282,13.282,0,0,1,5.27832-.99414,13.13141,13.13141,0,0,1,5.25684.99414,11.82314,11.82314,0,0,1,3.88672,2.6499,11.37306,11.37306,0,0,1,2.42969,3.84326,12.66692,12.66692,0,0,1,.83887,4.57178,12.96933,12.96933,0,0,1-.81641,4.57178,11.10833,11.10833,0,0,1-2.4082,3.84326,11.48328,11.48328,0,0,1-3.90918,2.62793A13.55745,13.55745,0,0,1,665.64486,266.98709Zm-5.168-12.01514a6.41019,6.41019,0,0,0,1.457,4.395,4.726,4.726,0,0,0,3.71094,1.65674,4.66511,4.66511,0,0,0,2.03223-.44189,4.873,4.873,0,0,0,1.6123-1.23682,5.9503,5.9503,0,0,0,1.082-1.92139,7.32868,7.32868,0,0,0,.39746-2.45166,6.4115,6.4115,0,0,0-1.458-4.395,4.677,4.677,0,0,0-3.666-1.65674,4.80048,4.80048,0,0,0-3.68848,1.67871,5.9195,5.9195,0,0,0-1.082,1.92139A7.30413,7.30413,0,0,0,660.47689,254.972Z"/>
          <path class="cls-11" d="M688.56967,266.98709a6.59571,6.59571,0,0,1-5.41113-2.231q-1.834-2.23022-1.833-6.55957v-14.8418h7.06738v13.2959a5.36654,5.36654,0,0,0,.83887,3.24658,2.79819,2.79819,0,0,0,2.38574,1.12646,5.4782,5.4782,0,0,0,2.73828-.751,6.412,6.412,0,0,0,2.3418-2.60645V243.35477H703.765V258.594a2.46305,2.46305,0,0,0,.33105,1.48,1.64345,1.64345,0,0,0,1.1709.50781v5.96338a14.91885,14.91885,0,0,1-1.72266.28711q-.70752.06592-1.28125.06641-3.7998,0-4.3291-2.95947l-.13281-1.41357a9.65612,9.65612,0,0,1-3.95312,3.37891A12.53527,12.53527,0,0,1,688.56967,266.98709Z"/>
          <path class="cls-11" d="M732.74252,239.82107a2.4276,2.4276,0,0,0-2.12109.92725,3.93236,3.93236,0,0,0-.66211,2.34131v2.16455h5.60938v5.34473h-5.60937V266.5452h-7.06738V250.59891h-5.08008V266.5452h-7.06738V250.59891h-2.96v-5.34473h2.96v-.751a11.23878,11.23878,0,0,1,.57422-3.6665,8.30824,8.30824,0,0,1,1.63379-2.87109,7.56219,7.56219,0,0,1,2.584-1.87744,8.38572,8.38572,0,0,1,3.46777-.68457,13.50983,13.50983,0,0,1,2.916.33154,19.61067,19.61067,0,0,1,3.04785.94971,7.88082,7.88082,0,0,1,2.62793-2.0542,8.25186,8.25186,0,0,1,3.68848-.77295,11.36317,11.36317,0,0,1,3.00391.39746,25.52541,25.52541,0,0,1,2.87109.97168l-1.28125,5.30078a13.49792,13.49792,0,0,0-1.47949-.48584A6.34281,6.34281,0,0,0,732.74252,239.82107Zm-9.85059,5.43311v-.61865q0-.4856.02148-1.06006.022-.57349.06641-1.082a2.55684,2.55684,0,0,1,.08887-.59668,6.35088,6.35088,0,0,0-1.3252-.39746,7.02055,7.02055,0,0,0-1.28125-.13232,2.41735,2.41735,0,0,0-2.03223.79492,3.36315,3.36315,0,0,0-.61816,2.12061v.97168Z"/>
          <path class="cls-11" d="M748.512,266.98709a13.554,13.554,0,0,1-5.27832-.97217,11.48328,11.48328,0,0,1-3.90918-2.62793,11.09393,11.09393,0,0,1-2.4082-3.84326,13.20891,13.20891,0,0,1,0-9.14355,11.09845,11.09845,0,0,1,2.4082-3.84326,11.76107,11.76107,0,0,1,3.90918-2.6499,13.282,13.282,0,0,1,5.27832-.99414,13.13141,13.13141,0,0,1,5.25684.99414,11.82314,11.82314,0,0,1,3.88672,2.6499,11.37306,11.37306,0,0,1,2.42969,3.84326,12.66692,12.66692,0,0,1,.83887,4.57178,12.96933,12.96933,0,0,1-.81641,4.57178,11.10833,11.10833,0,0,1-2.4082,3.84326,11.48328,11.48328,0,0,1-3.90918,2.62793A13.55745,13.55745,0,0,1,748.512,266.98709Zm-5.168-12.01514a6.41019,6.41019,0,0,0,1.457,4.395,4.726,4.726,0,0,0,3.71094,1.65674,4.66511,4.66511,0,0,0,2.03223-.44189,4.873,4.873,0,0,0,1.6123-1.23682,5.9503,5.9503,0,0,0,1.082-1.92139,7.32868,7.32868,0,0,0,.39746-2.45166,6.4115,6.4115,0,0,0-1.458-4.395,4.677,4.677,0,0,0-3.666-1.65674,4.80048,4.80048,0,0,0-3.68848,1.67871,5.9195,5.9195,0,0,0-1.082,1.92139A7.30413,7.30413,0,0,0,743.34408,254.972Z"/>
          <path class="cls-11" d="M786.764,266.5452h-7.06738V253.51443a5.20454,5.20454,0,0,0-.86133-3.335,2.81085,2.81085,0,0,0-2.27441-1.03809,3.92526,3.92526,0,0,0-1.502.30908,6.227,6.227,0,0,0-1.458.86133,6.621,6.621,0,0,0-1.25879,1.30322,6.204,6.204,0,0,0-.86133,1.63428v13.2959h-7.06738V243.35477h6.36035V247.242a8.44823,8.44823,0,0,1,3.62207-3.20264,12.28737,12.28737,0,0,1,5.38965-1.12646,7.01839,7.01839,0,0,1,3.62207.81738,5.86668,5.86668,0,0,1,2.12012,2.12012,8.2258,8.2258,0,0,1,.99414,2.84912,19.44622,19.44622,0,0,1,.24219,3.00391Z"/>
          <path class="cls-11" d="M790.07748,262.30447l11.83789-14.04687H790.69564v-4.90283h18.59668V247.595l-11.75,14.04687h12.05859v4.90332H790.07748Z"/>
          <path class="cls-11" d="M819.849,266.98709a9.096,9.096,0,0,1-3.20215-.55225,7.49047,7.49047,0,0,1-2.54-1.5459,7.407,7.407,0,0,1-1.67871-2.34131,6.95836,6.95836,0,0,1-.61816-2.9375,6.74906,6.74906,0,0,1,.72852-3.13623,7.20244,7.20244,0,0,1,2.05469-2.42969,10.13369,10.13369,0,0,1,3.13574-1.58984,13.26732,13.26732,0,0,1,4.01953-.57422,16.18478,16.18478,0,0,1,2.82715.24268,9.30356,9.30356,0,0,1,2.38574.729v-1.06006q0-4.01953-4.63867-4.02a10.31675,10.31675,0,0,0-3.62207.64063,17.45308,17.45308,0,0,0-3.62207,1.92139l-2.07617-4.417a18.54121,18.54121,0,0,1,4.77148-2.25293,17.998,17.998,0,0,1,5.25586-.751q5.25586,0,8.12793,2.47363,2.87109,2.47412,2.87109,7.24414V258.594a2.463,2.463,0,0,0,.33105,1.48,1.64539,1.64539,0,0,0,1.1709.50781v5.96338a11.7949,11.7949,0,0,1-1.67871.28711q-.75146.06592-1.36914.06641a4.91541,4.91541,0,0,1-3.00391-.77295,3.4205,3.4205,0,0,1-1.28125-2.18652l-.13184-1.06055a10.59657,10.59657,0,0,1-3.68848,3.04785A10.076,10.076,0,0,1,819.849,266.98709Zm2.07617-5.08008a6.42665,6.42665,0,0,0,2.23145-.39746,5.21628,5.21628,0,0,0,1.78906-1.06006,2.19446,2.19446,0,0,0,1.01563-1.67871v-2.2085a11.46191,11.46191,0,0,0-2.00977-.55225,11.19219,11.19219,0,0,0-2.00977-.19873,5.45167,5.45167,0,0,0-3.20312.8833,2.69469,2.69469,0,0,0-1.25879,2.29688,2.61891,2.61891,0,0,0,.97168,2.09863A3.71054,3.71054,0,0,0,821.92513,261.907Z"/>
          <path class="cls-11" d="M845.73373,266.98709a9.096,9.096,0,0,1-3.20215-.55225,7.49047,7.49047,0,0,1-2.54-1.5459,7.407,7.407,0,0,1-1.67871-2.34131,6.95835,6.95835,0,0,1-.61816-2.9375,6.74906,6.74906,0,0,1,.72852-3.13623,7.20244,7.20244,0,0,1,2.05469-2.42969,10.13369,10.13369,0,0,1,3.13574-1.58984,13.26732,13.26732,0,0,1,4.01953-.57422,16.18478,16.18478,0,0,1,2.82715.24268,9.30356,9.30356,0,0,1,2.38574.729v-1.06006q0-4.01953-4.63867-4.02a10.31675,10.31675,0,0,0-3.62207.64063,17.45308,17.45308,0,0,0-3.62207,1.92139l-2.07617-4.417a18.54121,18.54121,0,0,1,4.77148-2.25293,17.998,17.998,0,0,1,5.25586-.751q5.25586,0,8.12793,2.47363,2.87109,2.47412,2.87109,7.24414V258.594a2.46305,2.46305,0,0,0,.33105,1.48,1.64539,1.64539,0,0,0,1.1709.50781v5.96338a11.79489,11.79489,0,0,1-1.67871.28711q-.75146.06592-1.36914.06641a4.91541,4.91541,0,0,1-3.00391-.77295,3.4205,3.4205,0,0,1-1.28125-2.18652l-.13184-1.06055a10.59657,10.59657,0,0,1-3.68848,3.04785A10.076,10.076,0,0,1,845.73373,266.98709Zm2.07617-5.08008a6.42665,6.42665,0,0,0,2.23145-.39746,5.21628,5.21628,0,0,0,1.78906-1.06006,2.19446,2.19446,0,0,0,1.01563-1.67871v-2.2085a11.46191,11.46191,0,0,0-2.00977-.55225,11.19219,11.19219,0,0,0-2.00977-.19873,5.45167,5.45167,0,0,0-3.20312.8833,2.69469,2.69469,0,0,0-1.25879,2.29688,2.61891,2.61891,0,0,0,.97168,2.09863A3.71054,3.71054,0,0,0,847.8099,261.907Z"/>
          <path class="cls-11" d="M864.94857,234.2991h7.06836v23.98584q0,2.65063,2.252,2.65039a5.00114,5.00114,0,0,0,1.1709-.15479,4.29719,4.29719,0,0,0,1.1709-.46387l.92773,5.30078a13.67744,13.67744,0,0,1-3.04785.97168,16.1222,16.1222,0,0,1-3.22461.35352,6.43921,6.43921,0,0,1-4.68262-1.59033,6.11824,6.11824,0,0,1-1.63477-4.59375Z"/>
        </g>
        <g id="bazaar" class="cls-10">
          <path class="cls-11" d="M733.81283,80.48123a9.24679,9.24679,0,0,1-4.6377-1.12646,8.18542,8.18542,0,0,1-3.13672-3.1582v3.84277h-6.13965V47.79324h7.06738V60.64773a8.41986,8.41986,0,0,1,3.07031-3.11426,9.42244,9.42244,0,0,1,8.59082-.17676,9.81425,9.81425,0,0,1,3.18066,2.584,12.309,12.309,0,0,1,2.07617,3.86523,14.77636,14.77636,0,0,1,.751,4.74854,13.32879,13.32879,0,0,1-.81738,4.70459,11.71277,11.71277,0,0,1-2.27441,3.79883,10.40121,10.40121,0,0,1-3.44531,2.51758A10.21731,10.21731,0,0,1,733.81283,80.48123Zm-1.9873-5.96338a5.31624,5.31624,0,0,0,3.99707-1.72266,5.90679,5.90679,0,0,0,1.14844-1.87744,6.4896,6.4896,0,0,0,.41992-2.36328,7.05961,7.05961,0,0,0-.39746-2.36328,6.52762,6.52762,0,0,0-1.082-1.96582,5.0267,5.0267,0,0,0-1.65723-1.3252,4.58679,4.58679,0,0,0-2.07617-.48584,4.71318,4.71318,0,0,0-3.06934,1.14844,7.594,7.594,0,0,0-2.14258,2.87158v4.85889a5.53052,5.53052,0,0,0,2.05371,2.36328A5.13491,5.13491,0,0,0,731.82552,74.51785Z"/>
          <path class="cls-11" d="M754.75033,80.48123a9.096,9.096,0,0,1-3.20215-.55225,7.49047,7.49047,0,0,1-2.54-1.5459,7.407,7.407,0,0,1-1.67871-2.34131,6.95836,6.95836,0,0,1-.61816-2.9375,6.74906,6.74906,0,0,1,.72852-3.13623,7.20244,7.20244,0,0,1,2.05469-2.42969,10.13369,10.13369,0,0,1,3.13574-1.58984,13.26732,13.26732,0,0,1,4.01953-.57422,16.18478,16.18478,0,0,1,2.82715.24268,9.30356,9.30356,0,0,1,2.38574.729V65.28592q0-4.01953-4.63867-4.02a10.31675,10.31675,0,0,0-3.62207.64063,17.45308,17.45308,0,0,0-3.62207,1.92139l-2.07617-4.417a18.5412,18.5412,0,0,1,4.77148-2.25293,17.998,17.998,0,0,1,5.25586-.751q5.25586,0,8.12793,2.47363Q768.93,61.35477,768.93,66.12479v5.96338a2.463,2.463,0,0,0,.33105,1.48,1.64539,1.64539,0,0,0,1.1709.50781v5.96338a11.79488,11.79488,0,0,1-1.67871.28711q-.75146.06592-1.36914.06641a4.91541,4.91541,0,0,1-3.00391-.77295,3.4205,3.4205,0,0,1-1.28125-2.18652l-.13184-1.06055a10.59657,10.59657,0,0,1-3.68848,3.04785A10.076,10.076,0,0,1,754.75033,80.48123Zm2.07617-5.08008a6.42665,6.42665,0,0,0,2.23145-.39746,5.21628,5.21628,0,0,0,1.78906-1.06006,2.19446,2.19446,0,0,0,1.01563-1.67871v-2.2085a11.4619,11.4619,0,0,0-2.00977-.55225,11.19219,11.19219,0,0,0-2.00977-.19873,5.45167,5.45167,0,0,0-3.20312.8833,2.69469,2.69469,0,0,0-1.25879,2.29688,2.61891,2.61891,0,0,0,.97168,2.09863A3.71054,3.71054,0,0,0,756.8265,75.40115Z"/>
          <path class="cls-11" d="M772.6849,75.79861l11.83789-14.04687H773.30306V56.84891h18.59668v4.24023l-11.75,14.04687h12.05859v4.90332H772.6849Z"/>
          <path class="cls-11" d="M802.45541,80.48123a9.096,9.096,0,0,1-3.20215-.55225,7.49047,7.49047,0,0,1-2.54-1.5459,7.407,7.407,0,0,1-1.67871-2.34131,6.95835,6.95835,0,0,1-.61816-2.9375,6.74906,6.74906,0,0,1,.72852-3.13623,7.20244,7.20244,0,0,1,2.05469-2.42969,10.13369,10.13369,0,0,1,3.13574-1.58984,13.26732,13.26732,0,0,1,4.01953-.57422,16.18478,16.18478,0,0,1,2.82715.24268,9.30356,9.30356,0,0,1,2.38574.729V65.28592q0-4.01953-4.63867-4.02a10.31675,10.31675,0,0,0-3.62207.64063,17.45308,17.45308,0,0,0-3.62207,1.92139l-2.07617-4.417a18.54121,18.54121,0,0,1,4.77148-2.25293,17.998,17.998,0,0,1,5.25586-.751q5.25586,0,8.12793,2.47363,2.87109,2.47412,2.87109,7.24414v5.96338a2.46305,2.46305,0,0,0,.33105,1.48,1.64539,1.64539,0,0,0,1.1709.50781v5.96338a11.79488,11.79488,0,0,1-1.67871.28711q-.75146.06592-1.36914.06641a4.91541,4.91541,0,0,1-3.00391-.77295,3.4205,3.4205,0,0,1-1.28125-2.18652l-.13184-1.06055a10.59657,10.59657,0,0,1-3.68848,3.04785A10.076,10.076,0,0,1,802.45541,80.48123Zm2.07617-5.08008a6.42665,6.42665,0,0,0,2.23145-.39746,5.21628,5.21628,0,0,0,1.78906-1.06006,2.19446,2.19446,0,0,0,1.01563-1.67871v-2.2085a11.4619,11.4619,0,0,0-2.00977-.55225,11.19219,11.19219,0,0,0-2.00977-.19873,5.45167,5.45167,0,0,0-3.20312.8833,2.69469,2.69469,0,0,0-1.25879,2.29688,2.61891,2.61891,0,0,0,.97168,2.09863A3.71054,3.71054,0,0,0,804.53158,75.40115Z"/>
          <path class="cls-11" d="M828.34115,80.48123A9.096,9.096,0,0,1,825.139,79.929a7.49047,7.49047,0,0,1-2.54-1.5459,7.407,7.407,0,0,1-1.67871-2.34131,6.95836,6.95836,0,0,1-.61816-2.9375,6.74906,6.74906,0,0,1,.72852-3.13623,7.20244,7.20244,0,0,1,2.05469-2.42969,10.13369,10.13369,0,0,1,3.13574-1.58984,13.26732,13.26732,0,0,1,4.01953-.57422,16.18478,16.18478,0,0,1,2.82715.24268,9.30356,9.30356,0,0,1,2.38574.729V65.28592q0-4.01953-4.63867-4.02a10.31675,10.31675,0,0,0-3.62207.64063,17.45308,17.45308,0,0,0-3.62207,1.92139l-2.07617-4.417A18.5412,18.5412,0,0,1,826.266,57.158a17.998,17.998,0,0,1,5.25586-.751q5.25586,0,8.12793,2.47363,2.87109,2.47412,2.87109,7.24414v5.96338a2.463,2.463,0,0,0,.33105,1.48,1.64539,1.64539,0,0,0,1.1709.50781v5.96338a11.79488,11.79488,0,0,1-1.67871.28711q-.75146.06592-1.36914.06641a4.91541,4.91541,0,0,1-3.00391-.77295,3.4205,3.4205,0,0,1-1.28125-2.18652l-.13184-1.06055a10.59657,10.59657,0,0,1-3.68848,3.04785A10.076,10.076,0,0,1,828.34115,80.48123Zm2.07617-5.08008a6.42665,6.42665,0,0,0,2.23145-.39746,5.21628,5.21628,0,0,0,1.78906-1.06006,2.19446,2.19446,0,0,0,1.01563-1.67871v-2.2085a11.4619,11.4619,0,0,0-2.00977-.55225,11.19219,11.19219,0,0,0-2.00977-.19873,5.45167,5.45167,0,0,0-3.20312.8833,2.69469,2.69469,0,0,0-1.25879,2.29688,2.61891,2.61891,0,0,0,.97168,2.09863A3.71054,3.71054,0,0,0,830.41732,75.40115Z"/>
          <path class="cls-11" d="M862.35384,62.90018a13.55375,13.55375,0,0,0-4.6377.83936,5.65318,5.65318,0,0,0-3.00391,2.38525V80.03934h-7.06738V56.84891H854.138V61.531a9.848,9.848,0,0,1,3.07031-3.6665,7.0772,7.0772,0,0,1,3.99707-1.36914h.707a2.26355,2.26355,0,0,1,.44141.04443Z"/>
        </g>
        <g id="balkonzaal" class="cls-10">
          <path class="cls-11" d="M403.99447,80.48123a9.24867,9.24867,0,0,1-4.63818-1.12646,8.18421,8.18421,0,0,1-3.13623-3.1582v3.84277h-6.13965V47.79324h7.06738V60.64773a8.42226,8.42226,0,0,1,3.06982-3.11426,9.42446,9.42446,0,0,1,8.5918-.17676,9.82273,9.82273,0,0,1,3.18018,2.584,12.309,12.309,0,0,1,2.07617,3.86523,14.78977,14.78977,0,0,1,.751,4.74854,13.33959,13.33959,0,0,1-.81689,4.70459,11.72243,11.72243,0,0,1-2.2749,3.79883,10.40809,10.40809,0,0,1-3.4458,2.51758A10.21669,10.21669,0,0,1,403.99447,80.48123Zm-1.98779-5.96338a5.31421,5.31421,0,0,0,3.99756-1.72266,5.90679,5.90679,0,0,0,1.14844-1.87744,6.47935,6.47935,0,0,0,.41992-2.36328,7.05962,7.05962,0,0,0-.39746-2.36328,6.50751,6.50751,0,0,0-1.08252-1.96582,5.02312,5.02312,0,0,0-1.65625-1.3252,4.59126,4.59126,0,0,0-2.07617-.48584,4.71253,4.71253,0,0,0-3.06982,1.14844,7.599,7.599,0,0,0-2.14258,2.87158v4.85889a5.52835,5.52835,0,0,0,2.0542,2.36328A5.133,5.133,0,0,0,402.00668,74.51785Z"/>
          <path class="cls-11" d="M424.93246,80.48123a9.09874,9.09874,0,0,1-3.20264-.55225,7.4952,7.4952,0,0,1-2.54-1.5459,7.41322,7.41322,0,0,1-1.67822-2.34131,6.94381,6.94381,0,0,1-.61865-2.9375,6.74336,6.74336,0,0,1,.729-3.13623,7.19541,7.19541,0,0,1,2.0542-2.42969,10.14187,10.14187,0,0,1,3.13623-1.58984,13.265,13.265,0,0,1,4.01953-.57422,16.193,16.193,0,0,1,2.82715.24268,9.31173,9.31173,0,0,1,2.38525.729V65.28592q0-4.01953-4.63818-4.02a10.3128,10.3128,0,0,0-3.62207.64063,17.42873,17.42873,0,0,0-3.62207,1.92139l-2.07617-4.417a18.54291,18.54291,0,0,1,4.77051-2.25293,18.00614,18.00614,0,0,1,5.25635-.751q5.25659,0,8.12793,2.47363,2.87109,2.47412,2.87109,7.24414v5.96338a2.459,2.459,0,0,0,.33154,1.48,1.64218,1.64218,0,0,0,1.17041.50781v5.96338a11.80643,11.80643,0,0,1-1.67871.28711q-.75146.06592-1.36914.06641a4.9164,4.9164,0,0,1-3.00391-.77295,3.42,3.42,0,0,1-1.28076-2.18652l-.13281-1.06055a10.59062,10.59062,0,0,1-3.688,3.04785A10.07544,10.07544,0,0,1,424.93246,80.48123Zm2.07617-5.08008a6.41923,6.41923,0,0,0,2.23047-.39746,5.207,5.207,0,0,0,1.78906-1.06006,2.1938,2.1938,0,0,0,1.01611-1.67871v-2.2085a11.4619,11.4619,0,0,0-2.00977-.55225,11.19732,11.19732,0,0,0-2.01025-.19873,5.44953,5.44953,0,0,0-3.20215.8833,2.69405,2.69405,0,0,0-1.25928,2.29688,2.61645,2.61645,0,0,0,.97217,2.09863A3.70965,3.70965,0,0,0,427.00863,75.40115Z"/>
          <path class="cls-11" d="M444.1473,47.79324h7.06738V71.77908q0,2.65063,2.25293,2.65039a5.00054,5.00054,0,0,0,1.17041-.15479,4.28776,4.28776,0,0,0,1.17041-.46387l.92773,5.30078a13.66924,13.66924,0,0,1-3.04785.97168,16.11466,16.11466,0,0,1-3.22461.35352,6.43875,6.43875,0,0,1-4.68213-1.59033,6.118,6.118,0,0,1-1.63428-4.59375Z"/>
          <path class="cls-11" d="M474.62582,80.03934,468.57406,70.719l-2.47363,2.562v6.7583H459.033V47.79324h7.06738V66.4783l7.81836-9.62939h7.50928l-8.34814,9.98291,9.05518,13.20752Z"/>
          <path class="cls-11" d="M494.01742,80.48123a13.56,13.56,0,0,1-5.27881-.97217,11.488,11.488,0,0,1-3.90918-2.62793,11.0915,11.0915,0,0,1-2.40723-3.84326,13.1941,13.1941,0,0,1,0-9.14355,11.096,11.096,0,0,1,2.40723-3.84326,11.76606,11.76606,0,0,1,3.90918-2.6499,13.28776,13.28776,0,0,1,5.27881-.99414,13.12566,13.12566,0,0,1,5.25635.99414,11.8253,11.8253,0,0,1,3.88721,2.6499,11.3881,11.3881,0,0,1,2.42969,3.84326,12.65692,12.65692,0,0,1,.83936,4.57178,12.95916,12.95916,0,0,1-.81738,4.57178,11.1059,11.1059,0,0,1-2.40723,3.84326,11.49013,11.49013,0,0,1-3.90967,2.62793A13.55745,13.55745,0,0,1,494.01742,80.48123ZM488.849,68.46609a6.41065,6.41065,0,0,0,1.458,4.395,4.72362,4.72362,0,0,0,3.71045,1.65674,4.65836,4.65836,0,0,0,2.03174-.44189,4.86312,4.86312,0,0,0,1.6123-1.23682,5.93318,5.93318,0,0,0,1.08252-1.92139,7.32868,7.32868,0,0,0,.39746-2.45166,6.41127,6.41127,0,0,0-1.45752-4.395,4.678,4.678,0,0,0-3.6665-1.65674,4.79849,4.79849,0,0,0-3.68848,1.67871,5.9195,5.9195,0,0,0-1.082,1.92139A7.31641,7.31641,0,0,0,488.849,68.46609Z"/>
          <path class="cls-11" d="M532.26986,80.03934h-7.06738V67.00857a5.20136,5.20136,0,0,0-.86182-3.335,2.81019,2.81019,0,0,0-2.27441-1.03809,3.92526,3.92526,0,0,0-1.502.30908,6.21708,6.21708,0,0,0-1.458.86133,6.63484,6.63484,0,0,0-1.25879,1.30322,6.17542,6.17542,0,0,0-.86133,1.63428v13.2959h-7.06738V56.84891h6.36084v3.88721a8.43706,8.43706,0,0,1,3.62207-3.20264,12.2845,12.2845,0,0,1,5.38867-1.12646,7.02031,7.02031,0,0,1,3.62256.81738,5.86668,5.86668,0,0,1,2.12012,2.12012,8.21507,8.21507,0,0,1,.99365,2.84912,19.38975,19.38975,0,0,1,.24316,3.00391Z"/>
          <path class="cls-11" d="M535.58285,75.79861l11.83838-14.04687H536.2015V56.84891h18.59668v4.24023l-11.75,14.04687h12.05859v4.90332H535.58285Z"/>
          <path class="cls-11" d="M565.35384,80.48123a9.096,9.096,0,0,1-3.20215-.55225,7.49047,7.49047,0,0,1-2.54-1.5459,7.407,7.407,0,0,1-1.67871-2.34131,6.95835,6.95835,0,0,1-.61816-2.9375,6.74906,6.74906,0,0,1,.72852-3.13623,7.20244,7.20244,0,0,1,2.05469-2.42969,10.13369,10.13369,0,0,1,3.13574-1.58984,13.26732,13.26732,0,0,1,4.01953-.57422,16.18478,16.18478,0,0,1,2.82715.24268,9.30356,9.30356,0,0,1,2.38574.729V65.28592q0-4.01953-4.63867-4.02a10.31675,10.31675,0,0,0-3.62207.64063,17.45308,17.45308,0,0,0-3.62207,1.92139l-2.07617-4.417a18.54121,18.54121,0,0,1,4.77148-2.25293,17.998,17.998,0,0,1,5.25586-.751q5.25586,0,8.12793,2.47363,2.87109,2.47412,2.87109,7.24414v5.96338a2.46305,2.46305,0,0,0,.33105,1.48,1.64539,1.64539,0,0,0,1.1709.50781v5.96338a11.79488,11.79488,0,0,1-1.67871.28711q-.75146.06592-1.36914.06641a4.91541,4.91541,0,0,1-3.00391-.77295,3.4205,3.4205,0,0,1-1.28125-2.18652l-.13184-1.06055a10.59657,10.59657,0,0,1-3.68848,3.04785A10.076,10.076,0,0,1,565.35384,80.48123ZM567.43,75.40115a6.42665,6.42665,0,0,0,2.23145-.39746,5.21628,5.21628,0,0,0,1.78906-1.06006,2.19446,2.19446,0,0,0,1.01563-1.67871v-2.2085a11.4619,11.4619,0,0,0-2.00977-.55225,11.19219,11.19219,0,0,0-2.00977-.19873,5.45167,5.45167,0,0,0-3.20312.8833,2.69469,2.69469,0,0,0-1.25879,2.29688,2.61891,2.61891,0,0,0,.97168,2.09863A3.71054,3.71054,0,0,0,567.43,75.40115Z"/>
          <path class="cls-11" d="M591.23861,80.48123a9.096,9.096,0,0,1-3.20215-.55225,7.49047,7.49047,0,0,1-2.54-1.5459,7.407,7.407,0,0,1-1.67871-2.34131,6.95835,6.95835,0,0,1-.61816-2.9375,6.74906,6.74906,0,0,1,.72852-3.13623,7.20244,7.20244,0,0,1,2.05469-2.42969,10.13369,10.13369,0,0,1,3.13574-1.58984,13.26732,13.26732,0,0,1,4.01953-.57422,16.18478,16.18478,0,0,1,2.82715.24268,9.30356,9.30356,0,0,1,2.38574.729V65.28592q0-4.01953-4.63867-4.02a10.31675,10.31675,0,0,0-3.62207.64063,17.45308,17.45308,0,0,0-3.62207,1.92139l-2.07617-4.417a18.54121,18.54121,0,0,1,4.77148-2.25293,17.998,17.998,0,0,1,5.25586-.751q5.25586,0,8.12793,2.47363,2.87109,2.47412,2.87109,7.24414v5.96338a2.46305,2.46305,0,0,0,.33105,1.48,1.64539,1.64539,0,0,0,1.1709.50781v5.96338a11.79487,11.79487,0,0,1-1.67871.28711q-.75146.06592-1.36914.06641a4.91541,4.91541,0,0,1-3.00391-.77295,3.4205,3.4205,0,0,1-1.28125-2.18652l-.13184-1.06055a10.59657,10.59657,0,0,1-3.68848,3.04785A10.076,10.076,0,0,1,591.23861,80.48123Zm2.07617-5.08008a6.42665,6.42665,0,0,0,2.23145-.39746,5.21628,5.21628,0,0,0,1.78906-1.06006,2.19446,2.19446,0,0,0,1.01563-1.67871v-2.2085a11.4619,11.4619,0,0,0-2.00977-.55225,11.19219,11.19219,0,0,0-2.00977-.19873,5.45167,5.45167,0,0,0-3.20312.8833,2.69469,2.69469,0,0,0-1.25879,2.29688,2.61891,2.61891,0,0,0,.97168,2.09863A3.71054,3.71054,0,0,0,593.31478,75.40115Z"/>
          <path class="cls-11" d="M610.45443,47.79324h7.06836V71.77908q0,2.65063,2.252,2.65039a5.00114,5.00114,0,0,0,1.1709-.15479,4.29719,4.29719,0,0,0,1.1709-.46387l.92773,5.30078a13.67744,13.67744,0,0,1-3.04785.97168,16.12221,16.12221,0,0,1-3.22461.35352,6.43921,6.43921,0,0,1-4.68262-1.59033,6.11824,6.11824,0,0,1-1.63477-4.59375Z"/>
        </g>
        <g id="kassa" class="cls-10">
          <path class="cls-12" d="M728.43588,769.98856l-6.05176-9.32031-2.47363,2.56152v6.75879H712.8431V737.74246h7.06738V756.428l7.81836-9.62988h7.50977L726.89,756.78055l9.05469,13.208Z"/>
          <path class="cls-12" d="M744.24935,770.43a9.08485,9.08485,0,0,1-3.20215-.55176,7.49817,7.49817,0,0,1-2.54-1.5459,7.40354,7.40354,0,0,1-1.67871-2.3418,6.95517,6.95517,0,0,1-.61816-2.9375,6.74563,6.74563,0,0,1,.72852-3.13574,7.20244,7.20244,0,0,1,2.05469-2.42969,10.13369,10.13369,0,0,1,3.13574-1.58984,13.25211,13.25211,0,0,1,4.01953-.57422,16.13743,16.13743,0,0,1,2.82715.24316,9.28465,9.28465,0,0,1,2.38574.72852v-1.06055q0-4.01807-4.63867-4.01953a10.31674,10.31674,0,0,0-3.62207.64063,17.38694,17.38694,0,0,0-3.62207,1.92188l-2.07617-4.418a18.57,18.57,0,0,1,4.77148-2.252,17.98167,17.98167,0,0,1,5.25586-.751q5.25586,0,8.12793,2.47363,2.87109,2.47412,2.87109,7.24414v5.96289a2.46029,2.46029,0,0,0,.33105,1.47949,1.64573,1.64573,0,0,0,1.1709.50879v5.96289a11.726,11.726,0,0,1-1.67871.28711q-.75146.06592-1.36914.06641a4.90868,4.90868,0,0,1-3.00391-.77344,3.4168,3.4168,0,0,1-1.28125-2.18652l-.13184-1.05957a10.60192,10.60192,0,0,1-3.68848,3.04785A10.08788,10.08788,0,0,1,744.24935,770.43Zm2.07617-5.0791a6.41635,6.41635,0,0,0,2.23145-.39844,5.20783,5.20783,0,0,0,1.78906-1.05957,2.19371,2.19371,0,0,0,1.01563-1.67871v-2.209a11.50456,11.50456,0,0,0-2.00977-.55176,11.15083,11.15083,0,0,0-2.00977-.19922,5.44827,5.44827,0,0,0-3.20312.88379,2.69469,2.69469,0,0,0-1.25879,2.29688,2.61891,2.61891,0,0,0,.97168,2.09863A3.71081,3.71081,0,0,0,746.32552,765.35086Z"/>
          <path class="cls-12" d="M772.69662,770.43a18.464,18.464,0,0,1-5.83105-.94922,13.29466,13.29466,0,0,1-4.8584-2.76074l2.51758-4.3291a20.95874,20.95874,0,0,0,4.12988,2.25293,10.48894,10.48894,0,0,0,3.86523.79492,3.88644,3.88644,0,0,0,2.12012-.48633,1.57843,1.57843,0,0,0,.751-1.41309,1.66382,1.66382,0,0,0-.94922-1.47949,14.66077,14.66077,0,0,0-3.335-1.1709q-2.34229-.66211-3.9541-1.28125a11.11291,11.11291,0,0,1-2.62793-1.36914,4.43067,4.43067,0,0,1-1.458-1.72266,5.50152,5.50152,0,0,1-.44141-2.29687,7.223,7.223,0,0,1,2.65039-5.69824,9.231,9.231,0,0,1,2.9375-1.58984,11.45732,11.45732,0,0,1,3.68848-.57422,16.382,16.382,0,0,1,4.88086.70605,12.21207,12.21207,0,0,1,4.39551,2.5625l-2.73926,4.24023a18.703,18.703,0,0,0-3.5332-1.9873,8.07115,8.07115,0,0,0-3.00391-.61914,3.79918,3.79918,0,0,0-1.94336.46387,1.71659,1.71659,0,0,0,.06543,2.9375,14.27934,14.27934,0,0,0,3.20313,1.06055,40.78482,40.78482,0,0,1,4.17383,1.3252,11.16951,11.16951,0,0,1,2.76074,1.47949,5.01625,5.01625,0,0,1,1.5459,1.87793,5.99323,5.99323,0,0,1,.48633,2.51758,6.62629,6.62629,0,0,1-2.5625,5.47754A10.86007,10.86007,0,0,1,772.69662,770.43Z"/>
          <path class="cls-12" d="M794.73861,770.43a18.464,18.464,0,0,1-5.83105-.94922,13.29466,13.29466,0,0,1-4.8584-2.76074l2.51758-4.3291a20.95874,20.95874,0,0,0,4.12988,2.25293,10.48894,10.48894,0,0,0,3.86523.79492,3.88644,3.88644,0,0,0,2.12012-.48633,1.57843,1.57843,0,0,0,.751-1.41309,1.66382,1.66382,0,0,0-.94922-1.47949,14.66077,14.66077,0,0,0-3.335-1.1709q-2.34229-.66211-3.9541-1.28125a11.11291,11.11291,0,0,1-2.62793-1.36914,4.43067,4.43067,0,0,1-1.458-1.72266,5.50152,5.50152,0,0,1-.44141-2.29687,7.223,7.223,0,0,1,2.65039-5.69824,9.231,9.231,0,0,1,2.9375-1.58984,11.45732,11.45732,0,0,1,3.68848-.57422,16.382,16.382,0,0,1,4.88086.70605,12.21207,12.21207,0,0,1,4.39551,2.5625l-2.73926,4.24023a18.703,18.703,0,0,0-3.5332-1.9873,8.07115,8.07115,0,0,0-3.00391-.61914,3.79918,3.79918,0,0,0-1.94336.46387,1.71659,1.71659,0,0,0,.06543,2.9375,14.27934,14.27934,0,0,0,3.20313,1.06055,40.78482,40.78482,0,0,1,4.17383,1.3252,11.16952,11.16952,0,0,1,2.76074,1.47949,5.01625,5.01625,0,0,1,1.5459,1.87793,5.99323,5.99323,0,0,1,.48633,2.51758,6.62629,6.62629,0,0,1-2.5625,5.47754A10.86007,10.86007,0,0,1,794.73861,770.43Z"/>
          <path class="cls-12" d="M814.21713,770.43a9.08485,9.08485,0,0,1-3.20215-.55176,7.49817,7.49817,0,0,1-2.54-1.5459,7.40354,7.40354,0,0,1-1.67871-2.3418,6.95517,6.95517,0,0,1-.61816-2.9375,6.74563,6.74563,0,0,1,.72852-3.13574,7.20244,7.20244,0,0,1,2.05469-2.42969,10.13369,10.13369,0,0,1,3.13574-1.58984,13.25211,13.25211,0,0,1,4.01953-.57422,16.13743,16.13743,0,0,1,2.82715.24316,9.28465,9.28465,0,0,1,2.38574.72852v-1.06055q0-4.01807-4.63867-4.01953a10.31675,10.31675,0,0,0-3.62207.64063,17.38694,17.38694,0,0,0-3.62207,1.92188l-2.07617-4.418a18.57,18.57,0,0,1,4.77148-2.252,17.98167,17.98167,0,0,1,5.25586-.751q5.25586,0,8.12793,2.47363,2.87109,2.47412,2.87109,7.24414v5.96289a2.46029,2.46029,0,0,0,.33105,1.47949,1.64573,1.64573,0,0,0,1.1709.50879v5.96289a11.726,11.726,0,0,1-1.67871.28711q-.75146.06592-1.36914.06641a4.90868,4.90868,0,0,1-3.00391-.77344,3.4168,3.4168,0,0,1-1.28125-2.18652l-.13184-1.05957a10.60192,10.60192,0,0,1-3.68848,3.04785A10.08788,10.08788,0,0,1,814.21713,770.43Zm2.07617-5.0791a6.41635,6.41635,0,0,0,2.23145-.39844,5.20783,5.20783,0,0,0,1.78906-1.05957,2.19371,2.19371,0,0,0,1.01563-1.67871v-2.209a11.50455,11.50455,0,0,0-2.00977-.55176,11.15083,11.15083,0,0,0-2.00977-.19922,5.44827,5.44827,0,0,0-3.20312.88379,2.69469,2.69469,0,0,0-1.25879,2.29688,2.61891,2.61891,0,0,0,.97168,2.09863A3.71081,3.71081,0,0,0,816.2933,765.35086Z"/>
        </g>
        <g id="bootzaal" class="cls-10">
          <path class="cls-12" d="M383.37631,663.55984a9.24849,9.24849,0,0,1-4.63818-1.126,8.18421,8.18421,0,0,1-3.13623-3.1582v3.84277h-6.13965V630.87234h7.06738v12.85449a8.42226,8.42226,0,0,1,3.06982-3.11426,9.42843,9.42843,0,0,1,8.5918-.17676,9.82272,9.82272,0,0,1,3.18018,2.584,12.31437,12.31437,0,0,1,2.07617,3.86523,14.79277,14.79277,0,0,1,.751,4.749,13.34077,13.34077,0,0,1-.81689,4.7041,11.73276,11.73276,0,0,1-2.2749,3.79883,10.41491,10.41491,0,0,1-3.4458,2.51758A10.21635,10.21635,0,0,1,383.37631,663.55984Zm-1.98779-5.96289a5.31421,5.31421,0,0,0,3.99756-1.72266,5.89837,5.89837,0,0,0,1.14844-1.87793,6.476,6.476,0,0,0,.41992-2.3623,7.05962,7.05962,0,0,0-.39746-2.36328,6.50165,6.50165,0,0,0-1.08252-1.96582,5.01076,5.01076,0,0,0-1.65625-1.3252,4.579,4.579,0,0,0-2.07617-.48633,4.71,4.71,0,0,0-3.06982,1.14844,7.60112,7.60112,0,0,0-2.14258,2.87109v4.85938a5.53118,5.53118,0,0,0,2.0542,2.36328A5.133,5.133,0,0,0,381.38851,657.597Z"/>
          <path class="cls-12" d="M408.77572,663.55984a13.56,13.56,0,0,1-5.27881-.97168,11.488,11.488,0,0,1-3.90918-2.62793,11.0985,11.0985,0,0,1-2.40723-3.84277,13.19683,13.19683,0,0,1,0-9.14453,11.0985,11.0985,0,0,1,2.40723-3.84277,11.76717,11.76717,0,0,1,3.90918-2.65039,13.29635,13.29635,0,0,1,5.27881-.99316,13.13413,13.13413,0,0,1,5.25635.99316,11.82645,11.82645,0,0,1,3.88721,2.65039,11.39079,11.39079,0,0,1,2.42969,3.84277,12.66336,12.66336,0,0,1,.83936,4.57227,12.96577,12.96577,0,0,1-.81738,4.57227,11.11292,11.11292,0,0,1-2.40723,3.84277,11.49013,11.49013,0,0,1-3.90967,2.62793A13.5575,13.5575,0,0,1,408.77572,663.55984Zm-5.16846-12.01465a6.41281,6.41281,0,0,0,1.458,4.39551,4.72319,4.72319,0,0,0,3.71045,1.65625,4.67193,4.67193,0,0,0,2.03174-.44141,4.86458,4.86458,0,0,0,1.6123-1.2373,5.94081,5.94081,0,0,0,1.08252-1.92187,7.31963,7.31963,0,0,0,.39746-2.45117,6.41428,6.41428,0,0,0-1.45752-4.39551,4.68068,4.68068,0,0,0-3.6665-1.65625,4.80279,4.80279,0,0,0-3.68848,1.67871,5.922,5.922,0,0,0-1.082,1.92188A7.31148,7.31148,0,0,0,403.60726,651.5452Z"/>
          <path class="cls-12" d="M435.72006,663.55984a13.56,13.56,0,0,1-5.27881-.97168,11.488,11.488,0,0,1-3.90918-2.62793,11.0985,11.0985,0,0,1-2.40723-3.84277,13.19683,13.19683,0,0,1,0-9.14453,11.0985,11.0985,0,0,1,2.40723-3.84277,11.76717,11.76717,0,0,1,3.90918-2.65039,13.29635,13.29635,0,0,1,5.27881-.99316,13.13413,13.13413,0,0,1,5.25635.99316,11.82645,11.82645,0,0,1,3.88721,2.65039,11.39079,11.39079,0,0,1,2.42969,3.84277,12.66336,12.66336,0,0,1,.83936,4.57227,12.96577,12.96577,0,0,1-.81738,4.57227,11.11292,11.11292,0,0,1-2.40723,3.84277,11.49012,11.49012,0,0,1-3.90967,2.62793A13.5575,13.5575,0,0,1,435.72006,663.55984ZM430.5516,651.5452a6.41281,6.41281,0,0,0,1.458,4.39551,4.72319,4.72319,0,0,0,3.71045,1.65625,4.67193,4.67193,0,0,0,2.03174-.44141,4.86458,4.86458,0,0,0,1.6123-1.2373,5.94081,5.94081,0,0,0,1.08252-1.92187,7.31963,7.31963,0,0,0,.39746-2.45117,6.41428,6.41428,0,0,0-1.45752-4.39551,4.68068,4.68068,0,0,0-3.6665-1.65625,4.80279,4.80279,0,0,0-3.68848,1.67871,5.922,5.922,0,0,0-1.082,1.92188A7.31148,7.31148,0,0,0,430.5516,651.5452Z"/>
          <path class="cls-12" d="M466.33138,661.88113a28.1047,28.1047,0,0,1-3.335,1.14941,13.8769,13.8769,0,0,1-3.77686.5293,9.12942,9.12942,0,0,1-2.49561-.33105,5.55691,5.55691,0,0,1-2.0542-1.06055,4.94017,4.94017,0,0,1-1.3916-1.9209,7.3042,7.3042,0,0,1-.50781-2.87109V645.27273h-2.95947V639.928h2.95947v-7.377h7.06738v7.377h4.72656v5.34473h-4.72656v9.67383a1.89205,1.89205,0,0,0,2.03223,2.16406,5.41126,5.41126,0,0,0,1.63428-.26465,10.084,10.084,0,0,0,1.45752-.57422Z"/>
          <path class="cls-12" d="M467.70052,658.8782l11.83838-14.04687H468.31918V639.928h18.59668v4.24023l-11.75,14.04688h12.05908v4.90332H467.70052Z"/>
          <path class="cls-12" d="M497.472,663.55984a9.08758,9.08758,0,0,1-3.20264-.55176,7.50291,7.50291,0,0,1-2.54-1.5459,7.40978,7.40978,0,0,1-1.67822-2.3418,6.94064,6.94064,0,0,1-.61865-2.9375,6.73993,6.73993,0,0,1,.729-3.13574,7.19541,7.19541,0,0,1,2.0542-2.42969,10.14187,10.14187,0,0,1,3.13623-1.58984,13.24985,13.24985,0,0,1,4.01953-.57422,16.14561,16.14561,0,0,1,2.82715.24316,9.29278,9.29278,0,0,1,2.38525.72852v-1.06055q0-4.01807-4.63818-4.01953a10.3128,10.3128,0,0,0-3.62207.64063,17.36277,17.36277,0,0,0-3.62207,1.92188l-2.07617-4.418a18.57167,18.57167,0,0,1,4.77051-2.252,17.98975,17.98975,0,0,1,5.25635-.751q5.25659,0,8.12793,2.47363,2.87109,2.47412,2.87109,7.24414v5.96289a2.45625,2.45625,0,0,0,.33154,1.47949,1.64252,1.64252,0,0,0,1.17041.50879v5.96289a11.73744,11.73744,0,0,1-1.67871.28711q-.75146.06592-1.36914.06641a4.90966,4.90966,0,0,1-3.00391-.77344,3.41625,3.41625,0,0,1-1.28076-2.18652l-.13281-1.05957a10.596,10.596,0,0,1-3.688,3.04785A10.08735,10.08735,0,0,1,497.472,663.55984Zm2.07617-5.0791a6.409,6.409,0,0,0,2.23047-.39844,5.19861,5.19861,0,0,0,1.78906-1.05957,2.19305,2.19305,0,0,0,1.01611-1.67871v-2.209a11.50456,11.50456,0,0,0-2.00977-.55176,11.156,11.156,0,0,0-2.01025-.19922,5.44613,5.44613,0,0,0-3.20215.88379,2.69405,2.69405,0,0,0-1.25928,2.29688,2.61645,2.61645,0,0,0,.97217,2.09863A3.70992,3.70992,0,0,0,499.54818,658.48074Z"/>
          <path class="cls-12" d="M523.35726,663.55984a9.08758,9.08758,0,0,1-3.20264-.55176,7.50291,7.50291,0,0,1-2.54-1.5459,7.40978,7.40978,0,0,1-1.67822-2.3418,6.94064,6.94064,0,0,1-.61865-2.9375,6.73993,6.73993,0,0,1,.729-3.13574,7.19541,7.19541,0,0,1,2.0542-2.42969,10.14187,10.14187,0,0,1,3.13623-1.58984,13.24985,13.24985,0,0,1,4.01953-.57422,16.14561,16.14561,0,0,1,2.82715.24316,9.29278,9.29278,0,0,1,2.38525.72852v-1.06055q0-4.01807-4.63818-4.01953a10.3128,10.3128,0,0,0-3.62207.64063,17.36277,17.36277,0,0,0-3.62207,1.92188l-2.07617-4.418a18.57167,18.57167,0,0,1,4.77051-2.252,17.98975,17.98975,0,0,1,5.25635-.751q5.25659,0,8.12793,2.47363,2.87109,2.47412,2.87109,7.24414v5.96289a2.45625,2.45625,0,0,0,.33154,1.47949,1.64252,1.64252,0,0,0,1.17041.50879v5.96289a11.73744,11.73744,0,0,1-1.67871.28711q-.75146.06592-1.36914.06641a4.90966,4.90966,0,0,1-3.00391-.77344,3.41625,3.41625,0,0,1-1.28076-2.18652l-.13281-1.05957a10.596,10.596,0,0,1-3.688,3.04785A10.08735,10.08735,0,0,1,523.35726,663.55984Zm2.07617-5.0791a6.409,6.409,0,0,0,2.23047-.39844,5.19861,5.19861,0,0,0,1.78906-1.05957,2.19305,2.19305,0,0,0,1.01611-1.67871v-2.209a11.50456,11.50456,0,0,0-2.00977-.55176,11.156,11.156,0,0,0-2.01025-.19922,5.44613,5.44613,0,0,0-3.20215.88379,2.69405,2.69405,0,0,0-1.25928,2.29688,2.61645,2.61645,0,0,0,.97217,2.09863A3.70992,3.70992,0,0,0,525.43343,658.48074Z"/>
          <path class="cls-12" d="M542.57211,630.87234H549.64v23.98633q0,2.6499,2.252,2.64941a4.99872,4.99872,0,0,0,1.1709-.1543,4.28166,4.28166,0,0,0,1.1709-.46387l.92773,5.30078a13.67744,13.67744,0,0,1-3.04785.97168,16.12221,16.12221,0,0,1-3.22461.35352,6.44319,6.44319,0,0,1-4.68262-1.58984,6.11878,6.11878,0,0,1-1.63428-4.59375Z"/>
        </g>
        <g id="biljardzaal" class="cls-10">
          <path class="cls-12" d="M982.37045,374.77469a9.24849,9.24849,0,0,1,1.126-4.63818,8.18421,8.18421,0,0,1,3.1582-3.13623h-3.84277v-6.13965h32.24609V367.928h-12.85449a8.42226,8.42226,0,0,1,3.11426,3.06982,9.42843,9.42843,0,0,1,.17676,8.5918,9.82273,9.82273,0,0,1-2.584,3.18018,12.31438,12.31438,0,0,1-3.86523,2.07617,14.79276,14.79276,0,0,1-4.749.751,13.34077,13.34077,0,0,1-4.7041-.81689,11.73276,11.73276,0,0,1-3.79883-2.2749,10.41491,10.41491,0,0,1-2.51758-3.4458A10.21635,10.21635,0,0,1,982.37045,374.77469Zm5.96289-1.98779a5.31421,5.31421,0,0,0,1.72266,3.99756,5.89837,5.89837,0,0,0,1.87793,1.14844,6.47594,6.47594,0,0,0,2.3623.41992,7.05961,7.05961,0,0,0,2.36328-.39746,6.50165,6.50165,0,0,0,1.96582-1.08252,5.01076,5.01076,0,0,0,1.3252-1.65625,4.579,4.579,0,0,0,.48633-2.07617,4.71,4.71,0,0,0-1.14844-3.06982,7.60112,7.60112,0,0,0-2.87109-2.14258h-4.85937a5.53118,5.53118,0,0,0-2.36328,2.0542A5.133,5.133,0,0,0,988.33334,372.78689Z"/>
          <path class="cls-12" d="M982.81185,389.13113h23.19043v7.06738H982.81185Zm25.84082,0h6.40527v7.06738h-6.40527Z"/>
          <path class="cls-12" d="M1015.05795,400.96854v7.06787H991.07162q-2.6499,0-2.64941,2.252a4.99873,4.99873,0,0,0,.1543,1.1709,4.28167,4.28167,0,0,0,.46387,1.1709l-5.30078.92773a13.67744,13.67744,0,0,1-.97168-3.04785,16.1222,16.1222,0,0,1-.35352-3.22461,6.44319,6.44319,0,0,1,1.58984-4.68262,6.11878,6.11878,0,0,1,4.59375-1.63428Z"/>
          <path class="cls-12" d="M973.889,414.61746a10.17952,10.17952,0,0,1,.55176-3.35645,8.78408,8.78408,0,0,1,1.65723-2.87207l4.81445,2.96a2.98184,2.98184,0,0,0-.707,1.10449,3.801,3.801,0,0,0-.2207,1.28125,2.271,2.271,0,0,0,.66309,1.67773,2.38585,2.38585,0,0,0,1.7666.66309h23.58789v7.06738H982.94467a10.21534,10.21534,0,0,1-3.667-.64062,8.40129,8.40129,0,0,1-2.87109-1.78906,8.10475,8.10475,0,0,1-1.85449-2.71582A8.58692,8.58692,0,0,1,973.889,414.61746Zm34.76367,1.458h6.40527v7.06738h-6.40527Z"/>
          <path class="cls-12" d="M982.37045,434.53836a9.08485,9.08485,0,0,1,.55176-3.20215,7.49817,7.49817,0,0,1,1.5459-2.54,7.40354,7.40354,0,0,1,2.3418-1.67871,6.95517,6.95517,0,0,1,2.9375-.61816,6.74563,6.74563,0,0,1,3.13574.72852,7.20244,7.20244,0,0,1,2.42969,2.05469,10.13369,10.13369,0,0,1,1.58984,3.13574,13.25211,13.25211,0,0,1,.57422,4.01953,16.13743,16.13743,0,0,1-.24316,2.82715,9.28466,9.28466,0,0,1-.72852,2.38574h1.06055q4.01807,0,4.01953-4.63867a10.31674,10.31674,0,0,0-.64062-3.62207,17.387,17.387,0,0,0-1.92187-3.62207l4.418-2.07617a18.56994,18.56994,0,0,1,2.252,4.77148,17.98165,17.98165,0,0,1,.751,5.25586q0,5.25586-2.47363,8.12793-2.47412,2.87109-7.24414,2.87109H990.763a2.46029,2.46029,0,0,0-1.47949.33105,1.64573,1.64573,0,0,0-.50879,1.1709h-5.96289a11.726,11.726,0,0,1-.28711-1.67871q-.06592-.75146-.06641-1.36914a4.90868,4.90868,0,0,1,.77344-3.00391,3.4168,3.4168,0,0,1,2.18652-1.28125l1.05957-.13184a10.60191,10.60191,0,0,1-3.04785-3.68848A10.08788,10.08788,0,0,1,982.37045,434.53836Zm5.0791,2.07617a6.41635,6.41635,0,0,0,.39844,2.23145,5.20783,5.20783,0,0,0,1.05957,1.78906,2.19371,2.19371,0,0,0,1.67871,1.01563h2.209a11.50455,11.50455,0,0,0,.55176-2.00977,11.15083,11.15083,0,0,0,.19922-2.00977,5.44827,5.44827,0,0,0-.88379-3.20312,2.69469,2.69469,0,0,0-2.29687-1.25879,2.61891,2.61891,0,0,0-2.09863.97168A3.71081,3.71081,0,0,0,987.44955,436.61453Z"/>
          <path class="cls-12" d="M999.95052,468.55106a13.53055,13.53055,0,0,0-.83887-4.6377,5.65165,5.65165,0,0,0-2.38574-3.00391H982.81185v-7.06738h23.19043v6.49316h-4.68262a9.8497,9.8497,0,0,1,3.667,3.07031,7.0772,7.0772,0,0,1,1.36914,3.99707v.707a2.34068,2.34068,0,0,1-.04395.44141Z"/>
          <path class="cls-12" d="M982.37045,479.99246a10.57714,10.57714,0,0,1,.90527-4.39551,10.20355,10.20355,0,0,1,2.54-3.46777,11.95507,11.95507,0,0,1,3.82031-2.27441,13.56765,13.56765,0,0,1,4.793-.81738,14.57777,14.57777,0,0,1,4.72656.751,11.58626,11.58626,0,0,1,3.82129,2.12012,10.07275,10.07275,0,0,1,2.54,3.24707,9.19384,9.19384,0,0,1,.92676,4.12988,8.55016,8.55016,0,0,1-1.14844,4.39453,7.92764,7.92764,0,0,1-3.0918,3.02637h12.85449v7.06738H990.763a2.46029,2.46029,0,0,0-1.47949.33105,1.64378,1.64378,0,0,0-.50879,1.1709h-5.96289a13.33214,13.33214,0,0,1-.28711-1.67871q-.06592-.70752-.06641-1.3252a5.28506,5.28506,0,0,1,.77344-3.00391,2.98719,2.98719,0,0,1,2.23047-1.3252l1.19238-.13184a7.9035,7.9035,0,0,1-3.22461-3.335A9.81578,9.81578,0,0,1,982.37045,479.99246Zm5.96289,1.89941a5.13421,5.13421,0,0,0,.86133,2.80469,5.54632,5.54632,0,0,0,2.36328,2.05371h4.85938a6.37739,6.37739,0,0,0,2.89258-2.14258,5.00844,5.00844,0,0,0,1.127-3.06934,4.38443,4.38443,0,0,0-.50781-2.09863,5.59545,5.59545,0,0,0-1.34766-1.65625,5.9578,5.9578,0,0,0-1.94336-1.082,7.2117,7.2117,0,0,0-2.3418-.376,6.64417,6.64417,0,0,0-2.38477.41992,5.8371,5.8371,0,0,0-1.89941,1.14844,5.03118,5.03118,0,0,0-1.2373,1.7666A5.64489,5.64489,0,0,0,988.33334,481.89188Z"/>
          <path class="cls-12" d="M987.05209,497.88211,1001.099,509.72V498.50027h4.90332V517.097H1001.762l-14.04687-11.75v12.05859h-4.90332V497.88211Z"/>
          <path class="cls-12" d="M982.37045,527.65359a9.08485,9.08485,0,0,1,.55176-3.20215,7.49817,7.49817,0,0,1,1.5459-2.54,7.40354,7.40354,0,0,1,2.3418-1.67871,6.95517,6.95517,0,0,1,2.9375-.61816,6.74563,6.74563,0,0,1,3.13574.72852,7.20244,7.20244,0,0,1,2.42969,2.05469,10.13369,10.13369,0,0,1,1.58984,3.13574,13.25211,13.25211,0,0,1,.57422,4.01953,16.13743,16.13743,0,0,1-.24316,2.82715,9.28466,9.28466,0,0,1-.72852,2.38574h1.06055q4.01807,0,4.01953-4.63867a10.31674,10.31674,0,0,0-.64062-3.62207,17.387,17.387,0,0,0-1.92187-3.62207l4.418-2.07617a18.56994,18.56994,0,0,1,2.252,4.77148,17.98165,17.98165,0,0,1,.751,5.25586q0,5.25586-2.47363,8.12793-2.47412,2.87109-7.24414,2.87109H990.763a2.46029,2.46029,0,0,0-1.47949.33105,1.64573,1.64573,0,0,0-.50879,1.1709h-5.96289a11.726,11.726,0,0,1-.28711-1.67871q-.06592-.75146-.06641-1.36914a4.90868,4.90868,0,0,1,.77344-3.00391,3.4168,3.4168,0,0,1,2.18652-1.28125l1.05957-.13184a10.60191,10.60191,0,0,1-3.04785-3.68848A10.08788,10.08788,0,0,1,982.37045,527.65359Zm5.0791,2.07617a6.41635,6.41635,0,0,0,.39844,2.23145,5.20784,5.20784,0,0,0,1.05957,1.78906,2.19371,2.19371,0,0,0,1.67871,1.01563h2.209a11.50455,11.50455,0,0,0,.55176-2.00977,11.15083,11.15083,0,0,0,.19922-2.00977,5.44827,5.44827,0,0,0-.88379-3.20312,2.69469,2.69469,0,0,0-2.29687-1.25879,2.61891,2.61891,0,0,0-2.09863.97168A3.71081,3.71081,0,0,0,987.44955,529.72977Z"/>
          <path class="cls-12" d="M982.37045,553.53836a9.08485,9.08485,0,0,1,.55176-3.20215,7.49817,7.49817,0,0,1,1.5459-2.54,7.40354,7.40354,0,0,1,2.3418-1.67871,6.95517,6.95517,0,0,1,2.9375-.61816,6.74563,6.74563,0,0,1,3.13574.72852,7.20244,7.20244,0,0,1,2.42969,2.05469,10.13369,10.13369,0,0,1,1.58984,3.13574,13.25211,13.25211,0,0,1,.57422,4.01953,16.13743,16.13743,0,0,1-.24316,2.82715,9.28466,9.28466,0,0,1-.72852,2.38574h1.06055q4.01807,0,4.01953-4.63867a10.31674,10.31674,0,0,0-.64062-3.62207,17.387,17.387,0,0,0-1.92187-3.62207l4.418-2.07617a18.56994,18.56994,0,0,1,2.252,4.77148,17.98165,17.98165,0,0,1,.751,5.25586q0,5.25586-2.47363,8.12793-2.47412,2.87109-7.24414,2.87109H990.763a2.46029,2.46029,0,0,0-1.47949.33105,1.64573,1.64573,0,0,0-.50879,1.1709h-5.96289a11.726,11.726,0,0,1-.28711-1.67871q-.06592-.75146-.06641-1.36914a4.90868,4.90868,0,0,1,.77344-3.00391,3.4168,3.4168,0,0,1,2.18652-1.28125l1.05957-.13184a10.60191,10.60191,0,0,1-3.04785-3.68848A10.08788,10.08788,0,0,1,982.37045,553.53836Zm5.0791,2.07617a6.41635,6.41635,0,0,0,.39844,2.23145,5.20783,5.20783,0,0,0,1.05957,1.78906,2.19371,2.19371,0,0,0,1.67871,1.01563h2.209a11.50455,11.50455,0,0,0,.55176-2.00977,11.15083,11.15083,0,0,0,.19922-2.00977,5.44827,5.44827,0,0,0-.88379-3.20312,2.69469,2.69469,0,0,0-2.29687-1.25879,2.61891,2.61891,0,0,0-2.09863.97168A3.71081,3.71081,0,0,0,987.44955,555.61453Z"/>
          <path class="cls-12" d="M1015.05795,572.7532v7.06836H991.07162q-2.6499,0-2.64941,2.252a4.99873,4.99873,0,0,0,.1543,1.1709,4.28167,4.28167,0,0,0,.46387,1.1709l-5.30078.92773a13.67744,13.67744,0,0,1-.97168-3.04785,16.1222,16.1222,0,0,1-.35352-3.22461,6.44319,6.44319,0,0,1,1.58984-4.68262,6.119,6.119,0,0,1,4.59375-1.63477Z"/>
        </g>
        <g id="bonbonniere" class="cls-10">
          <path class="cls-11" d="M40.66976,530.31473a6.5259,6.5259,0,0,1,.79541-3.27441,5.78276,5.78276,0,0,1,2.23-2.21484H40.98177v-4.335H63.7474v4.99023H54.6722a5.94216,5.94216,0,0,1,2.19873,2.167,6.65062,6.65062,0,0,1,.12451,6.06543,6.92711,6.92711,0,0,1-1.82422,2.24609,8.72853,8.72853,0,0,1-2.72852,1.46582,10.46588,10.46588,0,0,1-3.35254.53027,9.42842,9.42842,0,0,1-3.32129-.57715,8.26085,8.26085,0,0,1-2.68213-1.60645,7.33767,7.33767,0,0,1-1.77734-2.43262A7.20963,7.20963,0,0,1,40.66976,530.31473Zm4.21045-1.40332a3.75311,3.75311,0,0,0,1.21582,2.82227,4.18625,4.18625,0,0,0,1.32568.81055,4.57921,4.57921,0,0,0,1.66846.2959,4.96913,4.96913,0,0,0,1.66846-.28027,4.61565,4.61565,0,0,0,1.3877-.76367,3.55435,3.55435,0,0,0,.93555-1.16992,3.23842,3.23842,0,0,0,.34326-1.46582,3.32489,3.32489,0,0,0-.811-2.167,5.363,5.363,0,0,0-2.02734-1.5127H47.15658a3.8994,3.8994,0,0,0-1.66846,1.4502A3.62416,3.62416,0,0,0,44.88021,528.91141Z"/>
          <path class="cls-11" d="M40.66976,548.24637a9.56825,9.56825,0,0,1,.686-3.72656,8.103,8.103,0,0,1,1.856-2.75977,7.82326,7.82326,0,0,1,2.71289-1.7002,9.31449,9.31449,0,0,1,6.45557,0A7.82326,7.82326,0,0,1,55.0931,541.76a8.29479,8.29479,0,0,1,1.87158,2.75977,9.37518,9.37518,0,0,1,.70166,3.72656,9.26724,9.26724,0,0,1-.70166,3.71094,8.33649,8.33649,0,0,1-1.87158,2.74414,8.02387,8.02387,0,0,1-2.71289,1.71582,8.94023,8.94023,0,0,1-3.22754.5918,9.16349,9.16349,0,0,1-3.228-.57617,7.83763,7.83763,0,0,1-2.71289-1.7002,8.103,8.103,0,0,1-1.856-2.75977A9.57513,9.57513,0,0,1,40.66976,548.24637Zm8.48291-3.64844a4.52736,4.52736,0,0,0-3.103,1.02832,3.33623,3.33623,0,0,0-1.16943,2.62012,3.29241,3.29241,0,0,0,.31152,1.43457,3.44573,3.44573,0,0,0,.87354,1.13867,4.21139,4.21139,0,0,0,1.35645.76367,5.15661,5.15661,0,0,0,1.731.28027,4.52344,4.52344,0,0,0,3.10254-1.0293,3.30081,3.30081,0,0,0,1.16992-2.58789,3.39047,3.39047,0,0,0-1.18506-2.60449,4.201,4.201,0,0,0-1.35693-.76367A5.15576,5.15576,0,0,0,49.15267,544.59793Z"/>
          <path class="cls-11" d="M40.98177,575.25223V570.263h9.19971a3.675,3.675,0,0,0,2.35449-.6084,1.98572,1.98572,0,0,0,.73291-1.60645,2.76835,2.76835,0,0,0-.21826-1.05957,4.35615,4.35615,0,0,0-.60791-1.0293,4.67716,4.67716,0,0,0-.91992-.88867,4.36151,4.36151,0,0,0-1.1543-.6084H40.98177V559.472H57.35433v4.49121H54.61019a5.95927,5.95927,0,0,1,2.26074,2.55762,8.67053,8.67053,0,0,1,.79541,3.80371,4.96033,4.96033,0,0,1-.57715,2.55762,4.13513,4.13513,0,0,1-1.49707,1.49707,5.78707,5.78707,0,0,1-2.01123.70117,13.67192,13.67192,0,0,1-2.12061.17188Z"/>
          <path class="cls-11" d="M40.66976,588.38211a6.5259,6.5259,0,0,1,.79541-3.27441,5.78276,5.78276,0,0,1,2.23-2.21484H40.98177v-4.335H63.7474v4.99023H54.6722a5.94216,5.94216,0,0,1,2.19873,2.167,6.65062,6.65062,0,0,1,.12451,6.06543,6.92711,6.92711,0,0,1-1.82422,2.24609,8.72853,8.72853,0,0,1-2.72852,1.46582,10.46588,10.46588,0,0,1-3.35254.53027,9.42842,9.42842,0,0,1-3.32129-.57715,8.26085,8.26085,0,0,1-2.68213-1.60645,7.33767,7.33767,0,0,1-1.77734-2.43262A7.20963,7.20963,0,0,1,40.66976,588.38211Zm4.21045-1.40332a3.75311,3.75311,0,0,0,1.21582,2.82227,4.18625,4.18625,0,0,0,1.32568.81055,4.57921,4.57921,0,0,0,1.66846.2959,4.96913,4.96913,0,0,0,1.66846-.28027,4.61565,4.61565,0,0,0,1.3877-.76367,3.55436,3.55436,0,0,0,.93555-1.16992,3.23842,3.23842,0,0,0,.34326-1.46582,3.32489,3.32489,0,0,0-.811-2.167,5.363,5.363,0,0,0-2.02734-1.5127H47.15658a3.8994,3.8994,0,0,0-1.66846,1.4502A3.62416,3.62416,0,0,0,44.88021,586.97879Z"/>
          <path class="cls-11" d="M40.66976,606.31375a9.56825,9.56825,0,0,1,.686-3.72656,8.103,8.103,0,0,1,1.856-2.75977,7.82326,7.82326,0,0,1,2.71289-1.7002,9.31449,9.31449,0,0,1,6.45557,0,7.82326,7.82326,0,0,1,2.71289,1.7002,8.29479,8.29479,0,0,1,1.87158,2.75977,9.37518,9.37518,0,0,1,.70166,3.72656,9.26724,9.26724,0,0,1-.70166,3.71094,8.33649,8.33649,0,0,1-1.87158,2.74414,8.02387,8.02387,0,0,1-2.71289,1.71582,8.94023,8.94023,0,0,1-3.22754.5918,9.16349,9.16349,0,0,1-3.228-.57617,7.83763,7.83763,0,0,1-2.71289-1.7002,8.103,8.103,0,0,1-1.856-2.75977A9.57513,9.57513,0,0,1,40.66976,606.31375Zm8.48291-3.64844a4.52736,4.52736,0,0,0-3.103,1.02832,3.33623,3.33623,0,0,0-1.16943,2.62012,3.29241,3.29241,0,0,0,.31152,1.43457,3.44573,3.44573,0,0,0,.87354,1.13867,4.2114,4.2114,0,0,0,1.35645.76367,5.15661,5.15661,0,0,0,1.731.28027,4.52344,4.52344,0,0,0,3.10254-1.0293,3.30081,3.30081,0,0,0,1.16992-2.58789,3.39047,3.39047,0,0,0-1.18506-2.60449,4.201,4.201,0,0,0-1.35693-.76367A5.15576,5.15576,0,0,0,49.15267,602.66531Z"/>
          <path class="cls-11" d="M40.98177,633.31961v-4.98926h9.19971a3.675,3.675,0,0,0,2.35449-.6084,1.98572,1.98572,0,0,0,.73291-1.60645,2.76835,2.76835,0,0,0-.21826-1.05957,4.35615,4.35615,0,0,0-.60791-1.0293,4.67716,4.67716,0,0,0-.91992-.88867,4.36151,4.36151,0,0,0-1.1543-.6084H40.98177v-4.99023H57.35433v4.49121H54.61019a5.95927,5.95927,0,0,1,2.26074,2.55762,8.67053,8.67053,0,0,1,.79541,3.80371,4.96033,4.96033,0,0,1-.57715,2.55762,4.13513,4.13513,0,0,1-1.49707,1.49707,5.78707,5.78707,0,0,1-2.01123.70117,13.6719,13.6719,0,0,1-2.12061.17188Z"/>
          <path class="cls-11" d="M40.98177,652.40555v-4.98926h9.19971a3.675,3.675,0,0,0,2.35449-.6084,1.98572,1.98572,0,0,0,.73291-1.60645,2.76835,2.76835,0,0,0-.21826-1.05957,4.35615,4.35615,0,0,0-.60791-1.0293,4.67716,4.67716,0,0,0-.91992-.88867,4.36151,4.36151,0,0,0-1.1543-.6084H40.98177v-4.99023H57.35433v4.49121H54.61019a5.95927,5.95927,0,0,1,2.26074,2.55762,8.67053,8.67053,0,0,1,.79541,3.80371,4.96033,4.96033,0,0,1-.57715,2.55762,4.13513,4.13513,0,0,1-1.49707,1.49707,5.78707,5.78707,0,0,1-2.01123.70117,13.6719,13.6719,0,0,1-2.12061.17188Z"/>
          <path class="cls-11" d="M40.98177,655.71121H57.35433v4.99023H40.98177Zm18.24365,0h4.522v4.99023h-4.522Z"/>
          <path class="cls-11" d="M40.66976,671.95926a9.67614,9.67614,0,0,1,.67041-3.69531,8.203,8.203,0,0,1,1.82471-2.77539,7.79418,7.79418,0,0,1,2.6665-1.73145,8.60694,8.60694,0,0,1,3.165-.59277,9.45386,9.45386,0,0,1,3.35254.59277,8.1147,8.1147,0,0,1,2.75977,1.71582,8.008,8.008,0,0,1,1.87158,2.75977,9.56825,9.56825,0,0,1,.686,3.72656,9.4578,9.4578,0,0,1-.686,3.71094,8.15516,8.15516,0,0,1-1.856,2.74414,7.87781,7.87781,0,0,1-2.69727,1.7002,9.03687,9.03687,0,0,1-3.2124.57617c-.2915,0-.57666-.01074-.85742-.03027a6.3215,6.3215,0,0,1-.73291-.09375V668.46609a3.36135,3.36135,0,0,0-2.51025,1.20117,3.81574,3.81574,0,0,0-.85791,2.44824,4.47723,4.47723,0,0,0,.53027,2.10449,2.70155,2.70155,0,0,0,1.43457,1.35645L45.036,679.81766a7.63314,7.63314,0,0,1-3.1499-2.99316A9.2922,9.2922,0,0,1,40.66976,671.95926Zm10.042,3.46191a3.75379,3.75379,0,0,0,2.46387-1.123,3.38264,3.38264,0,0,0,.9043-2.40137,3.33543,3.33543,0,0,0-.91992-2.417,3.81865,3.81865,0,0,0-2.44824-1.10742Z"/>
          <path class="cls-11" d="M53.08187,693.35184a9.56388,9.56388,0,0,0-.59277-3.27441,3.98977,3.98977,0,0,0-1.68359-2.12012H40.98177v-4.99023H57.35433v4.585H54.04867a6.9525,6.9525,0,0,1,2.58838,2.167,4.99854,4.99854,0,0,1,.9668,2.82227v.499a1.60505,1.60505,0,0,1-.03125.31152Z"/>
          <path class="cls-11" d="M40.66976,702.45828a9.67614,9.67614,0,0,1,.67041-3.69531,8.203,8.203,0,0,1,1.82471-2.77539,7.79418,7.79418,0,0,1,2.6665-1.73145,8.60694,8.60694,0,0,1,3.165-.59277,9.45385,9.45385,0,0,1,3.35254.59277,8.1147,8.1147,0,0,1,2.75977,1.71582,8.008,8.008,0,0,1,1.87158,2.75977,9.56825,9.56825,0,0,1,.686,3.72656,9.4578,9.4578,0,0,1-.686,3.71094,8.15515,8.15515,0,0,1-1.856,2.74414,7.87781,7.87781,0,0,1-2.69727,1.7002,9.03687,9.03687,0,0,1-3.2124.57617c-.2915,0-.57666-.01074-.85742-.03027a6.3215,6.3215,0,0,1-.73291-.09375V698.96512a3.36135,3.36135,0,0,0-2.51025,1.20117,3.81574,3.81574,0,0,0-.85791,2.44824,4.47723,4.47723,0,0,0,.53027,2.10449,2.70155,2.70155,0,0,0,1.43457,1.35645L45.036,710.31668a7.63314,7.63314,0,0,1-3.1499-2.99316A9.2922,9.2922,0,0,1,40.66976,702.45828Zm10.042,3.46191a3.75379,3.75379,0,0,0,2.46387-1.123,3.38264,3.38264,0,0,0,.9043-2.40137,3.33543,3.33543,0,0,0-.91992-2.417,3.81865,3.81865,0,0,0-2.44824-1.10742Z"/>
        </g>
      </g>
    </g>
  </g>
</svg>
